<?xml version="1.0" encoding="utf-8"?>
<svg version="1.1" id="Layer_1" xmlns="http://www.w3.org/2000/svg" xmlns:xlink="http://www.w3.org/1999/xlink" x="0px" y="0px"
	 viewBox="5 6 30 30" xml:space="preserve">
<style type="text/css">
	.st0{fill:#FFFFFF;}
</style>
<path class="st0" d="M27.6,12.5L27.6,12.5c-0.1-0.2-0.2-0.4-0.4-0.5l-8.7-5c-0.1-0.1-0.3-0.1-0.6-0.1c-0.2,0-0.4,0.1-0.6,0.1l-8.6,5
	c-0.3,0.2-0.5,0.6-0.5,1v10c0,0.2,0,0.4,0.2,0.6l0,0c0.1,0.1,0.2,0.3,0.3,0.3l8.7,5c0.1,0.1,0.3,0.1,0.6,0.1c0.2,0,0.4-0.1,0.6-0.1
	l8.6-5c0.3-0.2,0.5-0.6,0.5-1V13C27.7,12.8,27.7,12.7,27.6,12.5z M18,25.1c-3.9,0-7.1-3.2-7.1-7.1c0-3.9,3.2-7.1,7.1-7.1
	c2.6,0,4.9,1.5,6.2,3.6l-2.3,1.3c-0.8-1.3-2.2-2.2-3.8-2.2c-2.4,0-4.4,2-4.4,4.4c0,2.4,2,4.4,4.4,4.4c1.6,0,3.1-0.9,3.8-2.2l2.3,1.4
	C22.9,23.7,20.6,25.1,18,25.1z M27.2,17.6h-0.6l-0.2,0.7h0.7v0.9h-0.9l-0.2,1.1h-0.9l0.2-1.1h-0.7l-0.2,1.1h-0.9l0.2-1.1h-0.4v-0.9
	H24l0.2-0.7h-0.8v-0.9h1l0.2-1.1h0.9l-0.2,1.1h0.7l0.2-1.1H27l-0.2,1.1h0.4V17.6z M24.9,18.4h0.7l0.2-0.7h-0.7L24.9,18.4z"/>
</svg>
