<svg xmlns="http://www.w3.org/2000/svg" viewBox="0 0 184.93 184.93"><defs><style>.cls-1{fill:none;}.cls-2{fill:#b3b3b3;}.cls-3{fill:#a6120d;}.cls-4{fill:#dd1b16;}.cls-5{fill:#f2f2f2;}.cls-6{fill:#b52e31;fill-rule:evenodd;}</style></defs><g id="Layer_2" data-name="Layer 2"><g id="Layer_1_copy" data-name="Layer 1 copy"><rect class="cls-1" width="184.93" height="184.93" rx="43.28"/><path class="cls-2" d="M92.33,28.49,50.75,43.12,57.32,97.6l35.06,19.27,35.23-19.53,6.57-54.48Z"/><path class="cls-3" d="M130,46,92.23,33.12v79.15l31.68-17.53L130,46Z"/><path class="cls-4" d="M55.41,46.24,61.05,95l31.18,17.3V33.12L55.41,46.24Z"/><path class="cls-5" d="M102.64,75.26,92.23,80.12h-11L76.11,93l-9.59.17L92.23,36l10.41,39.26Zm-1-2.45L92.3,54.34,84.65,72.49h7.58l9.4.32Z"/><path class="cls-2" d="M92.23,36l.07,18.34L101,72.5H92.25l0,7.61h12.08L110,93.2l9.18.17L92.23,36Z"/><path class="cls-6" d="M40.43,156.26V133.62h2.91l13.84,18.22V133.62H60v22.64H57L43.2,137.86v18.4Z"/><path class="cls-6" d="M82.48,155.36a16.69,16.69,0,0,1-5.9,1q-12.28,0-12.29-11.79c0-7.44,4-11.18,11.86-11.18a21,21,0,0,1,6.33.94v2.51a16.58,16.58,0,0,0-6-1.11c-6.18,0-9.27,2.95-9.27,8.77,0,6.29,3.06,9.41,9.13,9.41a16,16,0,0,0,3.24-.39V146h2.91v9.37Z"/><path class="cls-6" d="M87.15,147.53V133.62h2.91v13.91c0,4.35,2.15,6.54,6.5,6.54s6.51-2.19,6.51-6.54V133.62H106v13.91q0,8.9-9.42,8.91c-6.29,0-9.41-3-9.41-8.91Z"/><path class="cls-6" d="M114.1,133.62v20.27H126v2.37H111.19V133.62Z"/><path class="cls-6" d="M130.16,156.26H127.1l11.25-25.62,11.25,25.62h-3.24l-2.91-7.11H136l.79-2.37h5.71l-4.24-10.25-8.08,19.73Z"/><path class="cls-6" d="M17.69,156.26H14.63l11.25-25.62,11.25,25.62H33.89L31,149.15H23.51l.79-2.37H30l-4.24-10.25-8.08,19.73Z"/><path class="cls-6" d="M152.72,156.26V133.62h9.67c4.31,0,6.47,1.8,6.47,5.43,0,2.95-2.12,5.14-6.33,6.54l7.77,10.67h-3.85l-7.19-10.17v-1.9c4.32-.68,6.51-2.34,6.51-5,0-2.08-1.19-3.12-3.59-3.12h-6.47v20.19Z"/></g></g></svg>