<svg xmlns="http://www.w3.org/2000/svg" viewBox="0 0 184.93 184.93"><defs><style>.cls-1{fill:none;}.cls-2{fill:#4d4d4d;}.cls-3{fill:#f90;fill-rule:evenodd;}</style></defs><g id="Layer_2" data-name="Layer 2"><g id="Layer_1_copy" data-name="Layer 1 copy"><rect class="cls-1" width="184.93" height="184.93" rx="43.28"/><path class="cls-2" d="M61.4,80.81A14,14,0,0,0,61.92,85a25.83,25.83,0,0,0,1.51,3.41,2,2,0,0,1,.33,1.09,1.86,1.86,0,0,1-.9,1.42l-3,2a2.3,2.3,0,0,1-1.23.42,2.13,2.13,0,0,1-1.42-.66,15,15,0,0,1-1.71-2.22c-.47-.81-.94-1.71-1.47-2.8a17.48,17.48,0,0,1-13.92,6.54c-4,0-7.15-1.14-9.47-3.41a12.2,12.2,0,0,1-3.51-9.1A12.18,12.18,0,0,1,31.46,72c2.89-2.46,6.73-3.7,11.61-3.7a38.77,38.77,0,0,1,5,.38c1.75.24,3.55.62,5.44,1V66.23c0-3.6-.75-6.11-2.22-7.58s-4.08-2.18-7.72-2.18a21.44,21.44,0,0,0-5.12.62,36.09,36.09,0,0,0-5.11,1.61,13,13,0,0,1-1.66.61,2.77,2.77,0,0,1-.76.15c-.66,0-1-.48-1-1.47V55.67A3,3,0,0,1,30.28,54a3.64,3.64,0,0,1,1.33-1,27.28,27.28,0,0,1,6-2.13A29,29,0,0,1,45,50c5.64,0,9.76,1.28,12.41,3.84s3.93,6.44,3.93,11.65V80.81ZM42.17,88a15.34,15.34,0,0,0,4.88-.85,10.52,10.52,0,0,0,4.49-3,7.42,7.42,0,0,0,1.61-3A16.71,16.71,0,0,0,53.63,77V75a40.18,40.18,0,0,0-4.36-.81,35.45,35.45,0,0,0-4.45-.28c-3.17,0-5.49.62-7.06,1.89a6.62,6.62,0,0,0-2.32,5.45A6.11,6.11,0,0,0,42.17,88Zm38,5.12a2.59,2.59,0,0,1-1.8-.48,3.85,3.85,0,0,1-1-1.84L66.27,54.2a8.37,8.37,0,0,1-.42-1.9A1,1,0,0,1,67,51.12h4.64a2.64,2.64,0,0,1,1.85.47,3.87,3.87,0,0,1,1,1.85l8,31.35,7.38-31.35a3.36,3.36,0,0,1,.9-1.85,3.32,3.32,0,0,1,1.9-.47h3.79a2.85,2.85,0,0,1,1.89.47,3.22,3.22,0,0,1,.9,1.85l7.48,31.73,8.2-31.73a4.07,4.07,0,0,1,.94-1.85,3.14,3.14,0,0,1,1.85-.47H122a1.05,1.05,0,0,1,1.18,1.18,5.57,5.57,0,0,1-.09.76,7.25,7.25,0,0,1-.34,1.19l-11.41,36.6a3.65,3.65,0,0,1-1,1.85,3,3,0,0,1-1.8.48h-4.08a2.84,2.84,0,0,1-1.89-.48,3.36,3.36,0,0,1-.9-1.89L94.36,60.26l-7.3,30.5a3.6,3.6,0,0,1-.9,1.89,2.86,2.86,0,0,1-1.89.48Zm60.85,1.28a31.26,31.26,0,0,1-7.29-.86,21.38,21.38,0,0,1-5.45-1.89,3.44,3.44,0,0,1-1.46-1.33,3.31,3.31,0,0,1-.29-1.32V86.59c0-1,.38-1.47,1.09-1.47a2.5,2.5,0,0,1,.85.15c.29.09.71.28,1.19.47a25.8,25.8,0,0,0,5.21,1.66,28.3,28.3,0,0,0,5.63.57,12.8,12.8,0,0,0,6.92-1.57,5.09,5.09,0,0,0,2.46-4.5,4.62,4.62,0,0,0-1.28-3.31,11.75,11.75,0,0,0-4.78-2.46L137,74c-3.46-1.08-6-2.69-7.58-4.83A11.27,11.27,0,0,1,127,62.3,10.58,10.58,0,0,1,128.31,57a12.2,12.2,0,0,1,3.41-3.88,15.22,15.22,0,0,1,4.93-2.47,20.9,20.9,0,0,1,6-.8,24.08,24.08,0,0,1,3.17.19c1.09.14,2.08.33,3.08.52s1.85.47,2.7.76a10,10,0,0,1,2,.85A4.26,4.26,0,0,1,155,53.39,2.59,2.59,0,0,1,155.4,55v2.22c0,1-.37,1.52-1.08,1.52a4.88,4.88,0,0,1-1.8-.57,21.7,21.7,0,0,0-9.1-1.85,12.23,12.23,0,0,0-6.3,1.33,4.58,4.58,0,0,0-2.22,4.21,4.47,4.47,0,0,0,1.42,3.37,14.1,14.1,0,0,0,5.21,2.6l6.72,2.13c3.41,1.09,5.88,2.61,7.34,4.55a10.71,10.71,0,0,1,2.18,6.63,12.08,12.08,0,0,1-1.23,5.49,12.74,12.74,0,0,1-3.46,4.17,15.18,15.18,0,0,1-5.25,2.65,22.33,22.33,0,0,1-6.78,1Z"/><path class="cls-3" d="M150,117.42C134.42,128.93,111.79,135,92.32,135A104.36,104.36,0,0,1,21.9,108.19c-1.47-1.33-.15-3.13,1.61-2.09A141.93,141.93,0,0,0,94,124.81a140.55,140.55,0,0,0,53.75-11C150.34,112.64,152.56,115.53,150,117.42Z"/><path class="cls-3" d="M156.49,110c-2-2.56-13.16-1.24-18.23-.62-1.51.19-1.75-1.14-.38-2.13,8.91-6.25,23.54-4.45,25.24-2.37s-.47,16.77-8.8,23.78c-1.28,1.08-2.51.52-1.95-.9C154.27,123.11,158.48,112.55,156.49,110Z"/></g></g></svg>