<svg xmlns="http://www.w3.org/2000/svg" viewBox="0 0 184.93 184.93"><defs><style>.cls-1{fill:none;}.cls-2{fill:#573e7d;}.cls-3{fill:#563d7c;}.cls-4{fill:#fff;}</style></defs><g id="Layer_2" data-name="Layer 2"><g id="Layer_1_copy" data-name="Layer 1 copy"><rect class="cls-1" width="184.93" height="184.93" rx="43.28"/><path class="cls-2" d="M40.54,134.31c.09,0,.16,0,.23,0,2.87,0,5.75,0,8.62,0a4.73,4.73,0,0,1,2.69.93,4,4,0,0,1-.52,6.39l-.43.23a9.36,9.36,0,0,1,1.35.63,4.58,4.58,0,0,1,1.45,5.24c-.59,1.73-2,2.44-3.63,2.82a7.08,7.08,0,0,1-1.65.19c-2.69,0-5.38,0-8.11,0V134.31Zm2.88,14c2,0,3.94.05,5.87,0a2.4,2.4,0,0,0,2-2.62,2.29,2.29,0,0,0-2-2.37c-1.92-.09-3.84-.07-5.77-.09,0,0,0,.05-.09.08v5Zm0-7.23c1.79,0,3.51.07,5.23,0,1.26-.06,2-1.07,1.93-2.46a1.92,1.92,0,0,0-2.07-2c-1.63,0-3.26,0-4.89,0a.84.84,0,0,0-.2.05Zm89.11-2.26h2.4v1.29c.26-.21.59-.44.89-.7,1.83-1.57,6.19-1.38,7.68,1.8a7.7,7.7,0,0,1-.5,8,4.39,4.39,0,0,1-4.13,1.82,4.66,4.66,0,0,1-3.76-1.89v6h-2.58V138.86Zm2.43,6a18.21,18.21,0,0,0,.34,1.79A3.19,3.19,0,0,0,138,149a3,3,0,0,0,3.27-1.87,5.43,5.43,0,0,0-.36-5.21,3.08,3.08,0,0,0-5.28.26,5.69,5.69,0,0,0-.65,2.69Zm-4.13,4.18c0,.49,0,1,0,1.48,0,.12-.16.33-.26.34a12.14,12.14,0,0,1-2.25.09c-.65-.07-1-.62-1.21-1.26a6.54,6.54,0,0,1-5.2,1.3,3.41,3.41,0,0,1-3-2.93c-.15-2,.61-3.26,2.38-3.73,1.25-.33,2.55-.46,3.82-.69a7.27,7.27,0,0,0,.93-.18,1.22,1.22,0,0,0,1-1.14,1.36,1.36,0,0,0-.86-1.47,4,4,0,0,0-3.29.07,2.19,2.19,0,0,0-1,1.48h-2.53a3.45,3.45,0,0,1,1-2.45,4.77,4.77,0,0,1,3.13-1.38,8.64,8.64,0,0,1,3.68.28,3.19,3.19,0,0,1,2.4,3.34v5.45c0,1.29,0,1.29,1.28,1.4Zm-3.9-4.11c-.8.14-1.53.25-2.25.4a16.08,16.08,0,0,0-2.25.56,1.54,1.54,0,0,0-.92,1.63,1.37,1.37,0,0,0,1.08,1.26,3.89,3.89,0,0,0,3-.14,2,2,0,0,0,1.3-1.68C127,146.3,126.93,145.61,126.93,145Zm-65-6.43c4-.05,6.28,2.86,6,6.81a6.35,6.35,0,0,1-1.36,3.75A5.45,5.45,0,0,1,62.86,151a6.78,6.78,0,0,1-3.64-.47,5.42,5.42,0,0,1-3.13-4,7.76,7.76,0,0,1,0-3.74,5.57,5.57,0,0,1,5.79-4.31Zm-3.45,6.31a14.78,14.78,0,0,0,.32,1.74A3.2,3.2,0,0,0,61.63,149a3.08,3.08,0,0,0,3.31-2.08,5.54,5.54,0,0,0,0-4.39,3.18,3.18,0,0,0-5.17-1.09,4.78,4.78,0,0,0-1.25,3.38Zm17.19-6.31a5.73,5.73,0,0,1,6,6,6.9,6.9,0,0,1-1.11,4.22,5.63,5.63,0,0,1-5.22,2.36,7.29,7.29,0,0,1-2.31-.5,5.15,5.15,0,0,1-3.18-3.75,8,8,0,0,1,.16-4.59,5.56,5.56,0,0,1,5.61-3.72Zm3.43,6A13.13,13.13,0,0,0,78.8,143a3.22,3.22,0,0,0-3-2.44,3.17,3.17,0,0,0-3.13,2.16,5.36,5.36,0,0,0,.37,4.86,3.13,3.13,0,0,0,4.65.76c1.11-.92,1.38-2.18,1.43-3.83Zm22.09-2.34c-.81,0-1.61,0-2.4,0a.36.36,0,0,1-.28-.19c-.45-1.24-1.5-1.38-2.58-1.39a3.7,3.7,0,0,0-1.35.28,1,1,0,0,0-.15,1.87,8.71,8.71,0,0,0,1.91.7c.92.26,1.88.41,2.8.69a3.22,3.22,0,0,1,2,5,4.25,4.25,0,0,1-2.66,1.69,8,8,0,0,1-4.75-.15A3.84,3.84,0,0,1,91,147h2.55a3.26,3.26,0,0,0,4.7,1.67,1.25,1.25,0,0,0,.77-1.07,1.14,1.14,0,0,0-.69-1.23c-.89-.33-1.83-.56-2.75-.83a22.92,22.92,0,0,1-2.28-.68,2.89,2.89,0,0,1-2-3A3,3,0,0,1,93.35,139a7.67,7.67,0,0,1,5.54,0,3.69,3.69,0,0,1,2.29,2.75A2,2,0,0,1,101.18,142.17Zm-13.85-3.34H89.7v1.93H87.38c0,.23,0,.39,0,.55,0,1.95,0,3.9,0,5.85,0,.26,0,.52,0,.78a.85.85,0,0,0,.86.85c.47,0,1,0,1.45,0v1.93a7.05,7.05,0,0,1-3.23,0c-1.24-.28-1.74-1.13-1.75-2.74,0-2.19,0-4.38,0-6.57v-.64h-2v-1.95h1.94v-3.58h2.65c0,1.17,0,2.33,0,3.57Zm22.09,12c-1,0-2,0-2.94,0a1.94,1.94,0,0,1-1.85-1.58,7.75,7.75,0,0,1-.18-1.59c0-2.06,0-4.12,0-6.19v-.65h-2v-1.92h1.92v-3.59h2.65v3.53h2.35v1.94h-2.25a2.49,2.49,0,0,0-.06.42q0,3.14,0,6.29c0,1.11.3,1.37,1.4,1.37h.92Zm4.4-11.93v2a4.16,4.16,0,0,1,4.51-2.32v2.5a3.6,3.6,0,0,0-2.78.43,3.85,3.85,0,0,0-1.53,3.25c0,2,0,4,0,6h-2.59V138.87Z"/><path class="cls-3" d="M41.83,118A13.06,13.06,0,0,0,54.89,131H130A13.06,13.06,0,0,0,143.1,118V42.8A13.06,13.06,0,0,0,130,29.74H54.89A13.06,13.06,0,0,0,41.83,42.8V118Z"/><path class="cls-4" d="M83.82,74.54V60.2H96.45a19.76,19.76,0,0,1,3.48.3,8.83,8.83,0,0,1,3,1.07A5.68,5.68,0,0,1,105,63.72a7.06,7.06,0,0,1,.77,3.52q0,3.87-2.32,5.58a9.64,9.64,0,0,1-5.92,1.72ZM70.34,49.72V111h29.72a31.75,31.75,0,0,0,8-1,21.56,21.56,0,0,0,7-3.18,15.65,15.65,0,0,0,4.85-5.54,16.79,16.79,0,0,0,1.81-8,17,17,0,0,0-2.79-9.83,14.69,14.69,0,0,0-8.46-5.71,15.34,15.34,0,0,0,6.22-5.07,13.38,13.38,0,0,0,2.11-7.73,16.48,16.48,0,0,0-1.42-7.21,11.75,11.75,0,0,0-4-4.68,17.23,17.23,0,0,0-6.19-2.54,38.45,38.45,0,0,0-8-.77Zm13.48,50.84V83.73H98.51a11.32,11.32,0,0,1,7,2c1.78,1.34,2.66,3.59,2.66,6.74a8.49,8.49,0,0,1-.81,4,6.59,6.59,0,0,1-2.19,2.45,9.2,9.2,0,0,1-3.18,1.28,17.81,17.81,0,0,1-3.78.39Z"/></g></g></svg>