<svg xmlns="http://www.w3.org/2000/svg" viewBox="0 0 184.93 184.93"><defs><style>.cls-1{fill:none;}.cls-2{fill:#004482;}.cls-3{fill:#00599c;}.cls-4{fill:#659ad2;}.cls-5{fill:#fff;}</style></defs><g id="Layer_2" data-name="Layer 2"><g id="Layer_1_copy" data-name="Layer 1 copy"><rect class="cls-1" width="184.93" height="184.93" rx="43.28"/><path class="cls-2" d="M141.22,69.86A9.69,9.69,0,0,0,140,65a9.4,9.4,0,0,0-3.53-3.44Q117,50.29,97.53,39.08a9.57,9.57,0,0,0-10.37.1c-5.17,3-31,17.88-38.76,22.36a9,9,0,0,0-4.72,8.31v45.23a9.83,9.83,0,0,0,1.14,4.78,9.23,9.23,0,0,0,3.59,3.53c7.71,4.49,33.6,19.32,38.77,22.37a9.57,9.57,0,0,0,10.37.1q19.47-11.25,39-22.47a9.32,9.32,0,0,0,3.59-3.54,9.7,9.7,0,0,0,1.14-4.78V69.86Z"/><path class="cls-3" d="M141.23,115.08a9.73,9.73,0,0,1-1.15,4.78,8.15,8.15,0,0,1-.65,1l-47-28.39L136.5,61.54A9.4,9.4,0,0,1,140,65a9.67,9.67,0,0,1,1.19,4.88c0,15.07,0,45.22,0,45.22Z"/><path class="cls-4" d="M140,65,44.81,119.86a9.71,9.71,0,0,1-1.13-4.78V69.85a9,9,0,0,1,4.72-8.31C56.11,57.06,82,42.22,87.16,39.17a9.57,9.57,0,0,1,10.37-.1q19.47,11.25,39,22.47A9.4,9.4,0,0,1,140,65Z"/><path class="cls-5" d="M94.33,110.73a17.9,17.9,0,0,1-15.7-9.25c-.16-.28-.31-.57-.45-.86a17.92,17.92,0,0,1,30-19.19c.24.29.45.59.69.9.11.14.21.29.31.44l15.73-9.06c-.38-.61-.78-1.21-1.2-1.79L123,71a35.85,35.85,0,0,0-60.18,38.46c.15.28.31.57.45.85a35.85,35.85,0,0,0,61.4,1.62l-15.39-9.3a17.84,17.84,0,0,1-15,8.08Z"/></g></g></svg>