<svg xmlns="http://www.w3.org/2000/svg" viewBox="0 0 184.93 184.93"><defs><style>.cls-1{fill:none;}.cls-2{fill:#5c8dbc;}.cls-3{fill:#1a4674;}.cls-4{fill:#1b598e;}.cls-5{fill:#fff;}</style></defs><g id="Layer_2" data-name="Layer 2"><g id="Layer_1_copy" data-name="Layer 1 copy"><rect class="cls-1" width="184.93" height="184.93" rx="43.28"/><path class="cls-2" d="M145.14,68.07a10.46,10.46,0,0,0-1.29-5.26A10.08,10.08,0,0,0,140,59.1Q119,47,98,34.86a10.31,10.31,0,0,0-11.2.11c-5.58,3.29-33.53,19.3-41.86,24.13a9.71,9.71,0,0,0-5.1,9v48.79A10.53,10.53,0,0,0,41,122a10,10,0,0,0,3.87,3.81c8.33,4.83,36.28,20.84,41.86,24.13a10.31,10.31,0,0,0,11.2.11q21-12.13,42.09-24.24a10.12,10.12,0,0,0,3.87-3.81,10.56,10.56,0,0,0,1.23-5.16V68.07"/><path class="cls-3" d="M92.63,92.31,41,122a10,10,0,0,0,3.87,3.81c8.33,4.83,36.28,20.84,41.86,24.13a10.31,10.31,0,0,0,11.2.11q21-12.13,42.09-24.24a10.12,10.12,0,0,0,3.87-3.81L92.63,92.31"/><path class="cls-3" d="M77.34,101.11a17.42,17.42,0,0,0,30.31-.1l-15-8.7-15.29,8.8"/><path class="cls-4" d="M145.14,68.07a10.46,10.46,0,0,0-1.29-5.26L92.63,92.31,143.91,122a10.56,10.56,0,0,0,1.23-5.16V68.07"/><path class="cls-5" d="M142.32,94.43h-4v4h-4v-4h-4v-4h4v-4h4v4h4v4m-14.63,0h-4v4h-4v-4h-4v-4h4v-4h4v4h4v4"/><path class="cls-5" d="M107.65,101a17.43,17.43,0,1,1-.12-17.29L122.76,75a35,35,0,1,0,.09,34.86L107.65,101"/></g></g></svg>