<svg xmlns="http://www.w3.org/2000/svg" viewBox="0 0 184.93 184.93"><defs><style>.cls-1{fill:none;}.cls-2{fill:#a179dc;}.cls-3{fill:#280068;}.cls-4{fill:#390091;}.cls-5{fill:#fff;}</style></defs><g id="Layer_2" data-name="Layer 2"><g id="Layer_1_copy" data-name="Layer 1 copy"><rect class="cls-1" width="184.93" height="184.93" rx="43.28"/><path class="cls-2" d="M137.85,71.45a9,9,0,0,0-1.11-4.53,8.59,8.59,0,0,0-3.29-3.2Q115.33,53.27,97.19,42.83a8.9,8.9,0,0,0-9.65.09c-4.81,2.84-28.89,16.64-36.06,20.79a8.38,8.38,0,0,0-4.4,7.73v42a9,9,0,0,0,1.06,4.45,8.63,8.63,0,0,0,3.33,3.29c7.18,4.15,31.26,17.95,36.07,20.79a8.9,8.9,0,0,0,9.65.09q18.12-10.46,36.27-20.89a8.61,8.61,0,0,0,3.33-3.28,9,9,0,0,0,1.06-4.45v-42"/><path class="cls-3" d="M92.6,92.33l-44.46,25.6a8.63,8.63,0,0,0,3.33,3.29c7.18,4.15,31.26,17.95,36.07,20.79a8.9,8.9,0,0,0,9.65.09q18.12-10.46,36.27-20.89a8.61,8.61,0,0,0,3.33-3.28Z"/><path class="cls-4" d="M137.85,71.45a9,9,0,0,0-1.11-4.53L92.6,92.33l44.19,25.6a9,9,0,0,0,1.06-4.45v-42"/><path class="cls-5" d="M118.78,82.76v4.78h4.79V82.76H126v4.78h4.79v2.4H126v4.78h4.79v2.39H126v4.79h-2.39V97.11h-4.79v4.79h-2.39V97.11h-4.78V94.72h4.78V89.94h-4.78v-2.4h4.78V82.76Zm4.79,7.18h-4.79v4.78h4.79Z"/><path class="cls-5" d="M92.7,58.72a33.74,33.74,0,0,1,29.22,16.86l-.06-.1-14.68,8.46a16.81,16.81,0,0,0-14.29-8.28H92.7a16.81,16.81,0,1,0,14.64,25l-.07.13,14.67,8.49A33.74,33.74,0,0,1,93.08,126.2H92.7a33.75,33.75,0,0,1,0-67.49Z"/></g></g></svg>