<svg xmlns="http://www.w3.org/2000/svg" viewBox="0 0 184.93 184.93"><defs><style>.cls-1{fill:none;}.cls-2{fill:#0091e2;}</style></defs><g id="Layer_2" data-name="Layer 2"><g id="Layer_1_copy" data-name="Layer 1 copy"><rect class="cls-1" width="184.93" height="184.93" rx="43.28"/><path class="cls-2" d="M49.62,122.19A1.87,1.87,0,0,0,47.68,124v9.48a10.5,10.5,0,0,0-14.75,1.62,10.61,10.61,0,0,0-2.31,6.58,10.49,10.49,0,1,0,21,.36V124.13a1.93,1.93,0,0,0-.56-1.38,2.06,2.06,0,0,0-1.42-.56m-2.47,22a6.56,6.56,0,0,1-8.62,3.52,6.56,6.56,0,1,1,5.13-12.08,6.64,6.64,0,0,1,3.49,3.52,6.31,6.31,0,0,1,0,5"/><path class="cls-2" d="M71.52,134.27a10.59,10.59,0,1,0,3.1,7.77v-.36a10.7,10.7,0,0,0-.79-4,10.12,10.12,0,0,0-2.31-3.39m-1.35,9.91a6.49,6.49,0,0,1-1.41,2.08,7,7,0,0,1-2.08,1.41,6.56,6.56,0,1,1-5.14-12.08,6.64,6.64,0,0,1,5.14,0A6.47,6.47,0,0,1,68.76,137a6.79,6.79,0,0,1,1.41,2.07,6.54,6.54,0,0,1,0,5.1"/><path class="cls-2" d="M114.89,133.12a2,2,0,0,0-.17-.76,2.34,2.34,0,0,0-.42-.62,2.13,2.13,0,0,0-.63-.43,1.92,1.92,0,0,0-.76-.17,2,2,0,0,0-1,.3l-11.2,7.28V124.16a1.91,1.91,0,0,0-.56-1.38,2,2,0,0,0-3.36,1.35v26.05a2,2,0,0,0,.56,1.38,1.85,1.85,0,0,0,1.39.59,2,2,0,0,0,1.94-2v-6.75l2.27-1.49,8.66,9.72a1.77,1.77,0,0,0,1.32.49,1.53,1.53,0,0,0,.76-.16,1.83,1.83,0,0,0,.62-.43,2.61,2.61,0,0,0,.43-.63,1.91,1.91,0,0,0,.17-.75,2,2,0,0,0-.53-1.35l-8-9.06,7.84-5.1a1.68,1.68,0,0,0,.76-1.55"/><path class="cls-2" d="M82.39,137a6.38,6.38,0,0,1,2.11-1.42,6.82,6.82,0,0,1,2.56-.53,6.52,6.52,0,0,1,2.28.4,6.76,6.76,0,0,1,2,1.22,2.08,2.08,0,0,0,1.29.42,1.72,1.72,0,0,0,1.41-.56,2,2,0,0,0,.56-1.41,1.87,1.87,0,0,0-.69-1.48,9.89,9.89,0,0,0-6.85-2.54,10.51,10.51,0,1,0,6.82,18.47,1.93,1.93,0,0,0,.63-1.44,1.89,1.89,0,0,0-1.82-1.95h-.13a2.05,2.05,0,0,0-1.25.4,7.05,7.05,0,0,1-2,1.22,6.87,6.87,0,0,1-2.28.39,6.12,6.12,0,0,1-2.56-.53,6.85,6.85,0,0,1-2.11-1.41,6.6,6.6,0,0,1,0-9.29c0,.07,0,.07,0,0"/><path class="cls-2" d="M153.78,132.49a3.81,3.81,0,0,0-1.32-.79,8,8,0,0,0-1.74-.39,15.29,15.29,0,0,0-1.78-.1,9.92,9.92,0,0,0-3.53.63,10.46,10.46,0,0,0-3.06,1.71v-.4a2,2,0,0,0-3.92,0v17.09a2,2,0,0,0,2,1.88,1.94,1.94,0,0,0,1.88-1.88v-8.53a6.32,6.32,0,0,1,.53-2.56,6,6,0,0,1,1.41-2.08,6.78,6.78,0,0,1,2.08-1.41,6.87,6.87,0,0,1,2.57-.53,7.49,7.49,0,0,1,2.57.46,1.77,1.77,0,0,0,.82.2,1.54,1.54,0,0,0,.76-.17,1.93,1.93,0,0,0,.62-.43,1.93,1.93,0,0,0,.59-1.38,1.69,1.69,0,0,0-.52-1.32"/><path class="cls-2" d="M135.6,137.66a10.7,10.7,0,0,0-9.71-6.45,10.51,10.51,0,0,0-10.51,10.47h0a10.51,10.51,0,0,0,17.36,8l.06-.07a1.45,1.45,0,0,0,.43-.49,2,2,0,0,0-.49-2.77,2,2,0,0,0-2.41.23,3,3,0,0,0-.26.27l0,0a6.11,6.11,0,0,1-4.15,1.45,6.56,6.56,0,0,1-2.11-.33,6.7,6.7,0,0,1-1.84-.95,6.05,6.05,0,0,1-1.45-1.45,5.9,5.9,0,0,1-.93-1.88h14.82a2,2,0,0,0,1.39-.56,1.73,1.73,0,0,0,.56-1.38,10.67,10.67,0,0,0-.73-4.09m-16,2.11a5.61,5.61,0,0,1,.93-1.88,5.84,5.84,0,0,1,1.45-1.44,7.33,7.33,0,0,1,1.84-1,6.69,6.69,0,0,1,4.15,0,6.68,6.68,0,0,1,4.25,4.28Z"/><path class="cls-2" d="M147.09,149.32a1.37,1.37,0,1,0,1.39,1.38,1.37,1.37,0,0,0-1.39-1.38h0m0,2.44a1.08,1.08,0,0,1-1.12-1,1.07,1.07,0,0,1,2.14-.1v.06a1,1,0,0,1-1,1.06h0"/><path class="cls-2" d="M147.42,150.7h0a.32.32,0,0,0,.27-.33.31.31,0,0,0-.14-.29,1,1,0,0,0-.46-.1,3,3,0,0,0-.52,0v1.35h.29v-.52H147c.17,0,.27.06.3.19l.1.33h.33a.6.6,0,0,1-.1-.33.33.33,0,0,0-.2-.33m-.39-.1h-.17v-.39H147c.2,0,.29.1.29.2s-.13.23-.29.19"/><path class="cls-2" d="M146.17,62.3c-.3-.25-3-2.34-8.94-2.34a28.84,28.84,0,0,0-4.62.41c-1.12-7.77-7.57-11.53-7.83-11.74l-1.57-.91-1,1.47a21.73,21.73,0,0,0-2.79,6.51,15.4,15.4,0,0,0,1.83,12.14c-2.7,1.52-7.07,1.88-8,1.93H41.1a3.4,3.4,0,0,0-3.4,3.4,51.38,51.38,0,0,0,3.15,18.55c2.49,6.5,6.2,11.33,11,14.27,5.39,3.31,14.18,5.19,24.09,5.19A74.11,74.11,0,0,0,89.27,110a55.21,55.21,0,0,0,17.48-6.35,47.76,47.76,0,0,0,11.88-9.76c5.75-6.45,9.15-13.67,11.64-20.07h1c6.24,0,10.11-2.49,12.24-4.62a13.53,13.53,0,0,0,3.25-4.78l.46-1.32Z"/><path class="cls-2" d="M47.81,67.69h9.65a.86.86,0,0,0,.87-.87h0V58.19a.86.86,0,0,0-.87-.87H47.81a.86.86,0,0,0-.86.87h0v8.63a.89.89,0,0,0,.86.87h0"/><path class="cls-2" d="M61.12,67.69h9.65a.86.86,0,0,0,.87-.87h0V58.19a.86.86,0,0,0-.87-.87H61.12a.86.86,0,0,0-.86.87v8.63a.89.89,0,0,0,.86.87"/><path class="cls-2" d="M74.69,67.69h9.65a.86.86,0,0,0,.86-.87h0V58.19a.86.86,0,0,0-.86-.87H74.69a.86.86,0,0,0-.87.87h0v8.63a.83.83,0,0,0,.87.87h0"/><path class="cls-2" d="M88.05,67.69H97.7a.86.86,0,0,0,.87-.87V58.19a.86.86,0,0,0-.87-.87H88.05a.86.86,0,0,0-.87.87h0v8.63a.86.86,0,0,0,.87.87h0"/><path class="cls-2" d="M61.12,55.34h9.65a.9.9,0,0,0,.87-.86V45.84a.86.86,0,0,0-.87-.86H61.12a.85.85,0,0,0-.86.86v8.64a.92.92,0,0,0,.86.86"/><path class="cls-2" d="M74.69,55.34h9.65a.89.89,0,0,0,.86-.86V45.84a.85.85,0,0,0-.86-.86H74.69a.86.86,0,0,0-.87.86h0v8.64a.86.86,0,0,0,.87.86"/><path class="cls-2" d="M88.05,55.34H97.7a.9.9,0,0,0,.87-.86V45.84A.89.89,0,0,0,97.7,45H88.05a.86.86,0,0,0-.87.86h0v8.64a.9.9,0,0,0,.87.86"/><path class="cls-2" d="M88.05,42.94H97.7a.86.86,0,0,0,.87-.86V33.44a.89.89,0,0,0-.87-.86H88.05a.86.86,0,0,0-.87.86h0v8.64a.89.89,0,0,0,.87.86"/><path class="cls-2" d="M101.51,67.69h9.66a.86.86,0,0,0,.86-.87V58.19a.86.86,0,0,0-.86-.87h-9.66a.86.86,0,0,0-.86.87h0v8.63a.89.89,0,0,0,.86.87"/></g></g></svg>