<svg xmlns="http://www.w3.org/2000/svg" xmlns:xlink="http://www.w3.org/1999/xlink" viewBox="0 0 184.93 184.93"><defs><style>.cls-1{fill:none;}.cls-2{fill:#1f62ae;}.cls-3{fill:#3c9bd5;}.cls-4{fill:#fff;}.cls-5{fill:url(#linear-gradient);}.cls-6{fill:url(#linear-gradient-2);}.cls-7{fill:url(#linear-gradient-3);}.cls-8{opacity:0.05;}.cls-9{fill:url(#linear-gradient-4);}.cls-10{fill:#e44d26;}.cls-11{fill:#f16529;}.cls-12{fill:#ebebeb;}.cls-13{fill:#f38030;}.cls-14{fill:#f89b34;}.cls-15{fill:#eaebec;}</style><linearGradient id="linear-gradient" x1="124.94" y1="65.3" x2="124.94" y2="53.19" gradientUnits="userSpaceOnUse"><stop offset="0.39" stop-color="#d0d2d3" stop-opacity="0"/><stop offset="1" stop-color="#d0d2d3"/></linearGradient><linearGradient id="linear-gradient-2" x1="140.07" y1="59.26" x2="140.07" y2="46.67" xlink:href="#linear-gradient"/><linearGradient id="linear-gradient-3" x1="117.66" y1="70.7" x2="146.74" y2="70.7" gradientUnits="userSpaceOnUse"><stop offset="0" stop-color="#e7e6e5"/><stop offset="1" stop-color="#fff"/></linearGradient><linearGradient id="linear-gradient-4" x1="116.32" y1="49.75" x2="147.89" y2="49.75" xlink:href="#linear-gradient-3"/></defs><g id="Layer_2" data-name="Layer 2"><g id="Layer_1_copy" data-name="Layer 1 copy"><rect class="cls-1" width="184.93" height="184.93" rx="43.28"/><polygon class="cls-2" points="152.68 87.32 132.26 92.82 111.85 87.32 107.14 36.3 157.39 36.3 152.68 87.32"/><polygon class="cls-3" points="132.26 40.43 132.26 88.44 132.31 88.45 148.83 84 152.64 40.43 132.26 40.43"/><polygon points="120.68 28.8 120.68 25.76 125.11 25.76 125.11 22.44 117.36 22.44 117.36 31.83 125.11 31.83 125.11 28.8 120.68 28.8"/><path d="M133.08,25.76h3.1V22.44h-7.75v3.32c1,1,1.57,1.54,3.08,3h-3.08v3h7.75v-3Z"/><path d="M144.08,25.76h3.09V22.44h-7.75v3.32c1,1,1.58,1.54,3.08,3h-3.08v3h7.75v-3Z"/><polygon class="cls-4" points="132.25 53.19 117.64 59.27 118.12 65.3 132.25 59.26 147.27 52.83 147.9 46.67 132.25 53.19"/><polygon class="cls-5" points="117.64 59.27 118.12 65.3 132.25 59.26 132.25 53.19 117.64 59.27"/><polygon class="cls-6" points="147.9 46.67 132.25 53.19 132.25 59.26 147.27 52.83 147.9 46.67"/><polygon class="cls-7" points="117.66 59.27 118.14 65.3 139.82 65.36 139.33 73.4 132.2 75.4 125.35 73.67 124.93 68.69 118.56 68.69 119.39 78.31 132.27 82.12 145.08 78.38 146.74 59.27 117.66 59.27"/><g class="cls-8"><polygon class="cls-4" points="132.25 59.27 117.64 59.27 118.12 65.3 132.25 65.34 132.25 59.27"/><polygon class="cls-4" points="132.25 75.39 132.18 75.4 125.32 73.67 124.91 68.69 118.54 68.69 119.37 78.31 132.25 82.12 132.25 75.39"/></g><polygon class="cls-9" points="116.32 46.67 147.9 46.67 147.27 52.83 117.08 52.83 116.32 46.67"/><polygon class="cls-4" points="132.25 46.67 116.32 46.67 117.08 52.83 132.25 52.83 132.25 46.67"/><polygon class="cls-10" points="32.17 87.75 27.54 35.84 78.4 35.84 73.77 87.75 52.94 93.52 32.17 87.75"/><polygon class="cls-11" points="52.97 89.11 69.8 84.44 73.76 40.09 52.97 40.09 52.97 89.11"/><polygon class="cls-12" points="52.97 59.34 44.55 59.34 43.97 52.82 52.97 52.82 52.97 46.46 52.95 46.46 37.01 46.46 37.16 48.16 38.72 65.71 52.97 65.71 52.97 59.34"/><polygon class="cls-12" points="52.97 75.88 52.94 75.88 45.85 73.97 45.4 68.89 41.95 68.89 39.01 68.89 39.9 78.89 52.94 82.51 52.97 82.5 52.97 75.88"/><polygon points="32.27 21.74 35.51 21.74 35.51 24.93 38.47 24.93 38.47 21.74 41.71 21.74 41.71 31.42 38.47 31.42 38.47 28.18 35.51 28.18 35.51 31.42 32.27 31.42 32.27 21.74 32.27 21.74"/><polygon points="45.96 24.95 43.11 24.95 43.11 21.74 52.05 21.74 52.05 24.95 49.2 24.95 49.2 31.42 45.96 31.42 45.96 24.95 45.96 24.95"/><polygon points="53.46 21.74 56.84 21.74 58.91 25.14 60.99 21.74 64.36 21.74 64.36 31.42 61.14 31.42 61.14 26.62 58.91 30.06 58.86 30.06 56.63 26.62 56.63 31.42 53.46 31.42 53.46 21.74"/><polygon points="65.97 21.74 69.21 21.74 69.21 28.22 73.76 28.22 73.76 31.42 65.97 31.42 65.97 21.74"/><polygon class="cls-4" points="52.95 59.34 52.95 65.71 60.79 65.71 60.05 73.97 52.95 75.88 52.95 82.51 66 78.89 66.1 77.81 67.59 61.05 67.75 59.34 66.03 59.34 52.95 59.34"/><polygon class="cls-4" points="52.95 46.46 52.95 50.41 52.95 52.81 52.95 52.82 68.31 52.82 68.31 52.82 68.33 52.82 68.45 51.39 68.75 48.16 68.9 46.46 52.95 46.46"/><polyline class="cls-4" points="92.19 171.64 71.42 165.87 66.79 113.96 117.65 113.96 113.02 165.86"/><polyline class="cls-4" points="109.05 162.56 113.01 118.21 92.22 118.21 92.22 167.22"/><polyline class="cls-4" points="93.56 99.85 93.56 102.47 96.33 106.4 93.77 106.4 93.77 109.54 101.46 109.54 101.46 106.55 98.9 103.27 101.46 103.27 101.46 99.85"/><polyline class="cls-4" points="93.37 124.57 93.37 130.94 107.61 130.63 108.15 124.57"/><polyline class="cls-4" points="105.28 137.46 93.37 137.46 93.37 143.82 101.49 143.3 100.76 151.82 93.37 153.68 93.37 160.3 105.25 157 105.34 155.93 106.84 139.17 107 137.46"/><polyline class="cls-4" points="98.63 140.72 93.37 140.72 93.37 127.76 99.22 127.76"/><polyline class="cls-4" points="90.86 153.63 82.63 151.3 82.36 147.74 78.26 147.01 79.15 157 90.86 160.25"/><polyline class="cls-4" points="90.86 124.57 85.45 124.57 86.58 157.2 90.86 157.2"/><polyline class="cls-4" points="87.53 99.85 87.53 106.33 86.22 106.33 86.22 105.13 82.98 105.13 82.98 109.54 90.77 109.54 90.77 99.85"/><polyline class="cls-13" points="92.19 171.64 71.42 165.87 66.79 113.96 117.65 113.96 113.02 165.86"/><polyline class="cls-14" points="109.05 162.56 113.01 118.21 92.22 118.21 92.22 167.22"/><polygon points="93.56 99.85 93.56 102.47 96.33 106.4 93.77 106.4 93.77 109.54 101.46 109.54 101.46 106.55 98.9 103.27 101.46 103.27 101.46 99.85 93.56 99.85"/><polyline class="cls-4" points="93.37 124.57 93.37 130.94 107.61 130.63 108.15 124.57"/><polyline class="cls-4" points="105.28 137.46 93.37 137.46 93.37 143.82 101.49 143.3 100.76 151.82 93.37 153.68 93.37 160.3 105.25 157 105.34 155.93 106.84 139.17 107 137.46"/><polyline class="cls-4" points="98.63 140.72 93.37 140.72 93.37 127.76 99.22 127.76"/><polyline class="cls-15" points="90.86 153.63 82.63 151.3 82.36 147.74 78.26 147.01 79.15 157 90.86 160.25"/><polyline class="cls-15" points="90.86 124.57 85.45 124.57 86.58 157.2 90.86 157.2"/><polygon points="87.53 99.85 87.53 106.33 86.22 106.33 86.22 105.13 82.98 105.13 82.98 109.54 90.77 109.54 90.77 99.85 87.53 99.85"/></g></g></svg>