<svg xmlns="http://www.w3.org/2000/svg" viewBox="0 0 184.93 184.93"><defs><style>.cls-1{fill:none;}.cls-2{fill:#3174b9;}.cls-2,.cls-3{fill-rule:evenodd;}.cls-3{fill:#ca3132;}</style></defs><g id="Layer_2" data-name="Layer 2"><g id="Layer_1_copy" data-name="Layer 1 copy"><rect class="cls-1" width="184.93" height="184.93" rx="43.28"/><path class="cls-2" d="M79.55,96.78S75.83,99,82.2,99.68c7.71.88,11.64.75,20.14-.86a34.75,34.75,0,0,0,5.35,2.61C88.65,109.6,64.59,101,79.55,96.78ZM77.22,86.13s-4.17,3.09,2.2,3.75c8.24.85,14.74.92,26-1.25a11.54,11.54,0,0,0,4,2.44C86.39,97.8,60.75,91.6,77.22,86.13Z"/><path class="cls-3" d="M96.84,68.07c4.69,5.4-1.23,10.26-1.23,10.26s11.91-6.15,6.44-13.85c-5.11-7.19-9-10.75,12.19-23.06C114.24,41.42,80.93,49.74,96.84,68.07Z"/><path class="cls-2" d="M122,104.66s2.75,2.27-3,4c-11,3.33-45.75,4.34-55.41.13-3.47-1.51,3-3.6,5.09-4a13.46,13.46,0,0,1,3.35-.38c-3.86-2.72-25,5.34-10.71,7.65,38.83,6.29,70.78-2.83,60.71-7.38ZM81.34,75.1s-17.68,4.2-6.26,5.72c4.82.65,14.43.5,23.38-.25,7.32-.61,14.67-1.93,14.67-1.93A31.75,31.75,0,0,0,108.68,81C90.72,85.75,56,83.55,66,78.72A33.33,33.33,0,0,1,81.34,75.1Zm31.71,17.72c18.26-9.48,9.82-18.59,3.93-17.36a13.49,13.49,0,0,0-2.09.56,3.33,3.33,0,0,1,1.56-1.2c11.65-4.1,20.61,12.08-3.76,18.48A1.5,1.5,0,0,0,113.05,92.82Z"/><path class="cls-3" d="M102.05,21.55s10.11,10.11-9.59,25.66c-15.79,12.47-3.6,19.58,0,27.71C83.24,66.6,76.47,59.28,81,52.47c6.66-10,25.12-14.86,21-30.92Z"/><path class="cls-2" d="M83.13,118.53c17.52,1.12,44.42-.62,45.06-8.91,0,0-1.22,3.14-14.48,5.63-14.95,2.82-33.4,2.49-44.33.68C69.38,115.93,71.62,117.79,83.13,118.53Z"/><path class="cls-3" d="M127.38,133.39h-.53v-.29h1.44v.29h-.54v1.5h-.37Zm2.87.08h0l-.53,1.41h-.24l-.53-1.41h0v1.41h-.36v-1.79h.52l.49,1.27.49-1.27h.51v1.79h-.34v-1.41Zm-50,16.73a8,8,0,0,1-5,2.24A3.17,3.17,0,0,1,71.85,149c0-2.33,1.3-4,6.49-4h1.92v5.28Zm4.56,5.14V139.42c0-4.07-2.32-6.76-7.92-6.76a20.85,20.85,0,0,0-8.45,1.84l.67,2.82a19.69,19.69,0,0,1,6.53-1.3c3.22,0,4.61,1.3,4.61,4v2H78.65c-7.83,0-11.36,3-11.36,7.6,0,3.94,2.32,6.17,6.71,6.17a10.11,10.11,0,0,0,6.88-2.86l.36,2.41Zm15.22,0H94.35l-6.84-22.27h5l4.25,13.69,1,4.11a86.09,86.09,0,0,0,4.42-17.8h4.83A90.25,90.25,0,0,1,100,155.34Zm21.82-5.14a8,8,0,0,1-5,2.24,3.17,3.17,0,0,1-3.45-3.49c0-2.33,1.3-4,6.49-4h1.93Zm4.56,5.14V139.42c0-4.07-2.33-6.76-7.92-6.76a20.78,20.78,0,0,0-8.45,1.84l.67,2.82a19.69,19.69,0,0,1,6.53-1.3c3.22,0,4.61,1.3,4.61,4v2h-1.62c-7.83,0-11.36,3-11.36,7.6,0,3.94,2.33,6.17,6.71,6.17a10.14,10.14,0,0,0,6.89-2.86l.36,2.41Zm-64.13,3.79a12,12,0,0,1-5.7,4.25l-2.25-2.65a9.49,9.49,0,0,0,3.95-3.7c.6-1.2.85-2.75.85-6.45V125.15H64v25.08C64,155.18,63.59,157.18,62.29,159.13Z"/></g></g></svg>