<svg xmlns="http://www.w3.org/2000/svg" viewBox="0 0 184.93 184.93"><defs><style>.cls-1{fill:none;}.cls-2{fill:#d33833;}.cls-3{fill:#ef3d3a;}.cls-4{fill:#231f20;}.cls-5{fill:#f0d6b7;}.cls-6{fill:#335061;}.cls-7{fill:#6d6b6d;}.cls-8{fill:#dcd9d8;}.cls-9{fill:#f7e4cd;}.cls-10{fill:#49728b;}.cls-11{fill:#fff;}.cls-12{stroke:#d33833;stroke-width:2px;}.cls-13{fill:#81b0c4;}.cls-14{fill:#1d1919;}</style></defs><g id="Layer_2" data-name="Layer 2"><g id="Layer_1_copy" data-name="Layer 1 copy"><rect class="cls-1" width="184.93" height="184.93" rx="43.28"/><path class="cls-2" d="M132.75,79.57c0,22.77-18.08,41.24-40.4,41.24S52,102.34,52,79.57,70,38.34,92.35,38.34s40.4,18.47,40.4,41.23"/><path class="cls-3" d="M53.61,89.78s-2.93-43,36.79-44.22l-2.77-4.62L66.09,48.16l-6.16,7.05L54.56,65.49l-3.07,12,.92,8"/><path class="cls-4" d="M64.69,51.44A40.41,40.41,0,0,0,53.22,79.73h0A40.43,40.43,0,0,0,64.69,108h0a38.51,38.51,0,0,0,27.66,11.7h0A38.51,38.51,0,0,0,120,108h0a40.43,40.43,0,0,0,11.47-28.3h0A40.41,40.41,0,0,0,120,51.44h0A38.64,38.64,0,0,0,92.35,39.73h0A38.59,38.59,0,0,0,64.69,51.44ZM62.9,109.75a42.78,42.78,0,0,1-12.19-30h0a42.88,42.88,0,0,1,12.19-30h0A41.13,41.13,0,0,1,92.35,37.23h0a41.17,41.17,0,0,1,29.46,12.46h0a42.79,42.79,0,0,1,12.18,30h0a42.81,42.81,0,0,1-12.18,30h0A41,41,0,0,1,92.35,122.2h0A41,41,0,0,1,62.9,109.75Z"/><path class="cls-5" d="M109.36,79.8l-6.16.91-8.31.94-5.37.13-5.25-.16-4-1.24-3.55-3.83-2.77-7.84L73.32,67l-3.68-1.24-2.15-3.54L66,57.16l1.69-4.45,4-1.4,3.23,1.53,1.53,3.38,1.86-.29.61-.78-.61-3.55-.17-4.45L79,41l0-3.51L81.79,33l4.92-3.54,8.61-3.68,9.54,1.4,8.31,6L117,39.31l2.47,4.46.62,11-1.86,9.53-3.38,8.46-3.2,4.52"/><path class="cls-6" d="M104.15,106.37l-22,.91V111L84,123.86l-.91,1.08L67.72,119.7l-1.08-1.85-1.53-17.37L61.5,90.08l-.79-2.48L73,79.15l3.84-1.53,3.39,4.16,2.94,2.6,3.38,1.08,1.54.45,1.85,8,1.4,1.69,3.56-1.23-2.48,4.78,13.36,6.31-1.66.91"/><path class="cls-7" d="M67.65,52.77l4-1.39,3.23,1.52,1.53,3.39,1.86-.3.45-1.85-.91-3.54.91-8.46L78,37.52l2.77-3.22,6-4.74L85,27.25l-8.47,4.16L73,34.17l-2,4.3L68,42.63,67,47.54l.62,5.23"/><path class="cls-8" d="M74,38.34s2.32-5.7,11.54-8.46.45-2,.45-2L76,31.73l-3.84,3.84-1.7,3.06L74,38.34"/><path class="cls-8" d="M69.35,51.7s-3.23-10.76,9.09-12.29L78,37.56l-8.47,2-2.48,8,.62,5.23,1.7-1.07"/><path class="cls-9" d="M74.27,66l2-2a1.28,1.28,0,0,1,1.07,1.17c.17,1.07.62,10.76,7.24,16,.62.49-4.92-.78-4.92-.78l-4.92-7.67"/><path class="cls-9" d="M102.58,63.05s.36-4.65,1.63-4.29a1.73,1.73,0,0,1,1.27,1.62s-3.06,2-2.9,2.67"/><path class="cls-9" d="M115.35,46s-2.54.52-2.77,2.76,2.77.46,3.23.3"/><path class="cls-9" d="M96.75,46.17s-3.39.46-3.39,2.6,3.85,2,4.92,1.08"/><path class="cls-9" d="M75.83,56.16S70,52.61,69.38,56s-2,5.83.91,9.37l-2-.62L66.45,60l-.62-4.61,3.55-3.68,4,.29,2.31,1.86.13,2.31"/><path class="cls-9" d="M78.6,46.47s2.61-13.53,15.84-16.13c10.88-2.15,16.61.45,18.76,2.92,0,0-9.71-11.51-18.93-8s-16,10-15.83,14.12c.26,7.09.16,7.09.16,7.09"/><path class="cls-9" d="M114.28,34.79s-4.46-.16-4.63,3.84a3.11,3.11,0,0,0,.3,1.23s3.55-4,5.7-1.85"/><path class="cls-9" d="M94.76,40.29s-.78-6.12-6-2.57c-3.39,2.31-3.07,5.53-2.48,6.14s.46,1.86.91,1,.33-3.61,2-4.39,4.47-1.62,5.54-.19"/><path class="cls-10" d="M80.3,81.78,65.83,88.22s6,23.81,2.93,31.19l-2.15-.78-.16-9.08-4-17.17-1.69-4.74L75.83,77.49l4.47,4.29"/><path class="cls-10" d="M81.76,95l2,2.51v9.2H81.37s-.29-6.44-.29-7.22.29-3.54.29-3.54"/><path class="cls-10" d="M81.83,108.06l-6.94.29,2,1.4,4.92.78"/><path class="cls-6" d="M105.51,106.53l5.71-.16,1.4,14.11-5.84.78-1.27-14.73"/><path class="cls-6" d="M107.05,106.53l8.6-.46s3.55-8.91,3.55-9.36,3.06-12.91,3.06-12.91l-6.94-7.22-1.4-1.24L110.24,79V93.29l-3.19,13.24"/><path class="cls-10" d="M110.89,105.46l-5.38,1.07.79,4.29c2,.91,5.37-1.53,5.37-1.53"/><path class="cls-10" d="M111.05,78.56l10.79,8,.29-3.67L114,75.38l-2.94,3.18"/><path class="cls-11" d="M87.17,136.77,84,123.86l-1.6-9.52-.26-7.06,14.43-.78h9l-.81,16.13,1.4,12.45-.16,2.31-11.7.91-7.07-1.53"/><path class="cls-8" d="M103.53,106.37s-.79,16,1.53,27.35a29.33,29.33,0,0,1-11.37,3.67l12.93-.45,1.53-.91-1.85-25.17-.49-5.4"/><path class="cls-11" d="M112.85,119.28l6-1.69,11.37-.62,1.7-5.24-3.07-9.07-3.55-.45-4.92,1.52L115.68,106l-2.51-.45-2,.78"/><path class="cls-8" d="M112.75,116.19s4-1.85,4.62-1.69L115.68,106l2-.78s1.4,8,1.4,8.91c0,0,8.6.46,9.38.46a13.94,13.94,0,0,0,1.4-7.22l1.7,4.91.16,2.76-2.48,3.68-2.77.62-4.62-.17-1.53-2-5.38.78-1.69.62"/><path class="cls-11" d="M106.69,105.29l-3.39-8.58-3.55-5.07s.78-2.15,1.85-2.15h3.56l3.38,1.24-.29,5.69-1.56,8.87"/><path class="cls-8" d="M107.37,102.37s-4.3-8.29-4.3-9.53c0,0,.78-1.85,1.86-1.4s3.39,1.69,3.39,1.69V90.21l-5.25-1.08-3.55.46,6,14.18,1.24.16"/><path class="cls-11" d="M88.54,82.11l-4.27-.46-4-1.23v1.39l2,2.15,6.16,2.77"/><path class="cls-8" d="M81.66,82.56s4.76,2,6.32,1.53L88.15,86,83.85,85l-2.61-1.85.42-.62"/><path class="cls-2" d="M112.85,90a28,28,0,0,1-7-1,15.65,15.65,0,0,1,.1-2.27,5.43,5.43,0,0,1,2.41-.52,4.17,4.17,0,0,0-2.68-.29,4.35,4.35,0,0,0-.45-1.4c1.46-.52,4.92-3.94,6.87-2.83,1,.55,1.34,3.61,1.4,5.14a5.39,5.39,0,0,1-.61,3.15"/><path class="cls-12" d="M112.85,90a28,28,0,0,1-7-1,15.65,15.65,0,0,1,.1-2.27,5.43,5.43,0,0,1,2.41-.52,4.17,4.17,0,0,0-2.68-.29,4.35,4.35,0,0,0-.45-1.4c1.46-.52,4.92-3.94,6.87-2.83,1,.55,1.34,3.61,1.4,5.14a5.39,5.39,0,0,1-.61,3.15Z"/><path class="cls-2" d="M100.37,85.75a2.93,2.93,0,0,1,0,.59c-.81.52-2.11.52-3,1a8.67,8.67,0,0,1,3.26.81c0,.49,0,1-.06,1.5-1.5,1-2.87,2.54-4.63,3.51-.85.46-3.75,1.63-4.63,1.4-.49-.13-.55-.75-.75-1.33A19.16,19.16,0,0,1,89,88.06c-.1-2.38-.36-6.38,2.21-5.89a22.59,22.59,0,0,1,6.09,2.21c1,.59,1.57,1.24,3.07,1.37"/><path class="cls-12" d="M100.37,85.75a2.93,2.93,0,0,1,0,.59c-.81.52-2.11.52-3,1a8.67,8.67,0,0,1,3.26.81c0,.49,0,1-.06,1.5-1.5,1-2.87,2.54-4.63,3.51-.85.46-3.75,1.63-4.63,1.4-.49-.13-.55-.75-.75-1.33A19.16,19.16,0,0,1,89,88.06c-.1-2.38-.36-6.38,2.21-5.89a22.59,22.59,0,0,1,6.09,2.21c1,.59,1.57,1.24,3.07,1.37Z"/><path class="cls-2" d="M101.83,88.58a8.77,8.77,0,0,1-.39-2.8c3.49-2.31,4.11,4,.39,2.8"/><path class="cls-12" d="M101.83,88.58a8.77,8.77,0,0,1-.39-2.8c3.49-2.31,4.11,4,.39,2.8Z"/><path class="cls-3" d="M106.85,89.62s-1.08-1.53-.29-2,1.53,0,2-.78,0-1.24.17-2.15.91-1.07,1.69-1.24,2.93-.45,3.23.3L112.71,81l-1.85-.62L105,83.77l-.3,1.69v3.38"/><path class="cls-3" d="M90.69,94.69c-.2-2.4-.39-4.78-.59-7.18-.32-3.58.85-3,4-3,.49,0,2.93.55,3.09.91.85,1.72-1.4,1.33,1,2.63,2,1.07,5.54-.65,4.73-3.09-.46-.55-2.35-.16-3-.52l-3.61-1.85c-1.53-.78-5-1.95-6.68-.85-4.14,2.8.26,9.82,1.73,12.75"/><path class="cls-4" d="M94.76,40.29c-4.2-1-6.29,1.75-7.56,4.58-1.14-.26-.68-1.82-.39-2.6.75-2.05,3.78-4.81,6.26-4.42,1,.13,2.47,1.1,1.69,2.44"/><path class="cls-4" d="M115.19,45h.2a43.15,43.15,0,0,0,3,5.79c-.81,1.89-6.06,3.52-6,.2,1.14-.49,3.09-.1,4.1-.75-.58-1.59-1.4-3-1.27-5.24"/><path class="cls-4" d="M96.88,45.1c.91,1.66,1.21,3.38,2.48,4.62.58.55,1.69,1.23,1.14,2.79a3.59,3.59,0,0,1-1.63,1.34c-2,.58-6.65.13-5.09-2.38,1.67.07,3.88,1.08,5.12-.13-.94-1.49-2.64-4.48-2-6.24"/><path class="cls-4" d="M114.44,61.82c-3,1.91-6.35,4-11.3,3.54a3.32,3.32,0,0,1-.43-4.29c.52.91.2,2.6,1.7,2.86,2.8.49,6.06-1.72,8.08-2.47,1.23-2.12-.1-2.86-1.24-4.23-2.31-2.76-5.38-6.21-5.28-10.34,1-.68,1,1,1.14,1.33,1.21,2.8,4.24,6.41,6.42,8.81.55.59,1.43,1.18,1.53,1.57.29,1.1-.75,2.47-.62,3.22"/><path class="cls-4" d="M74.76,59.8c-1-.55-1.18-2.9-2.28-3-1.6-.1-1.31,3.06-1.31,4.91-1.07-1-1.27-4-.49-5.59-.91-.46-1.3.48-1.82.81.68-4.72,6.94-2.18,5.9,2.83"/><path class="cls-4" d="M116.33,63.8c-1.4,2.67-3.39,5.59-7.49,5.69a9,9,0,0,1,0-2.7c3.16-.32,5.11-1.92,7.49-3"/><path class="cls-4" d="M96.65,65.52c2.61,1.37,7.43,1.53,11,1.43a11.59,11.59,0,0,1,.2,2.7c-4.59.2-10-.94-11.21-4.13"/><path class="cls-4" d="M96.16,68.06c1.83,4.55,8,4,13.3,3.9a2.65,2.65,0,0,1-1.37,1.53c-1.7.68-6.32,1.2-8.67,0C98,72.68,97,70.89,96.16,69.85c-.36-.49-2.31-1.76,0-1.79"/><path class="cls-13" d="M114.21,93.13a90.18,90.18,0,0,1-6.68,10.57c1-3.09,1.5-8.29,1.67-12.26a3.86,3.86,0,0,1,5,1.69"/><path class="cls-4" d="M125.65,106.21c-2.38.48-4,2.79-6.39,2.63,1.31-1.79,3.52-2.57,6.39-2.63"/><path class="cls-4" d="M126.69,109.91a35.67,35.67,0,0,1-6.19.36c1-1.43,4.53-.91,6.19-.36"/><path class="cls-4" d="M127.38,113.13c-2.19,0-4.89,0-7-.16,1.24-1.33,5.58-.49,7,.16"/><path class="cls-8" d="M110.11,121.91c.32,2.73,1.4,5.5,1.27,8.49a9.25,9.25,0,0,1-3.52.75c-.1-2.54-.46-6.44-.36-8.88.78.07,2-.55,2.61-.36"/><path class="cls-5" d="M106.59,81.59c-1.11.71-2,1.59-3.1,2.37a6.71,6.71,0,0,1-5.31-1.49c0-.1.2-.07.2-.2,2.51,1.11,5.7-.46,8.21-.68"/><path class="cls-13" d="M93.49,98.6c.69-3,3.39-4.52,5.83-6.15,2.51,3.19,4,7.28,5.74,11.25a57.88,57.88,0,0,1-11.57-5.1"/><path class="cls-4" d="M107.5,122.3c-.1,2.44.23,6.31.36,8.88a9.25,9.25,0,0,0,3.52-.75c.13-3-.95-5.75-1.27-8.49-.65-.22-1.83.4-2.61.36ZM82.35,108.51a126.56,126.56,0,0,0,5.44,26.67c6.29,1.92,13.85,2.08,19.42.36-1-4.88-.59-10.83-1.17-16.07-.46-3.93-.23-7.87-.85-11.87-6.75-1.39-16.26-.32-22.84.91Zm24.43-.84c-.06,4.19.2,8.36.53,12.55a40.24,40.24,0,0,0,4.2-.75c-.49-4-.42-8.61-1.43-12.19a10.39,10.39,0,0,0-3.3.39ZM115,107a11.13,11.13,0,0,0-2.38,0c.36,3.41,1.18,7.18,1.47,10.79,1.14,0,1.76-.52,2.71-.68.06-3.16-.27-7.51-1.8-10.11Zm12.42,11.31c2.41-.58,3.91-3.51,3.22-6.53-.45-2-1.24-5.86-2.12-7.16-.61-.94-2.34-2.21-3.74-1.33-2.25,1.43-6.19,1.85-7.82,3.58a57.57,57.57,0,0,1,1.4,9.88c2.8.16,6.22-.78,8.57.23-1.63.52-3.72.52-5.12,1.3,1.18.55,3.85.46,5.61,0ZM105,103.7c-1.7-4-3.23-8.06-5.74-11.25-2.44,1.63-5.11,3.19-5.83,6.15A59.43,59.43,0,0,0,105,103.7Zm4.17-12.26c-.17,4-.62,9.17-1.67,12.26a92.75,92.75,0,0,0,6.68-10.57,3.86,3.86,0,0,0-5-1.69Zm-4.73-1.66c-.94-.1-1.76,1.11-3,.59-.29.32-.55.65-.84,1,2.73,3.32,4,8,6.12,11.87,1.14-3.74,1-7.8,1.27-11.87-1.56.07-2.44-1.46-3.55-1.56Zm-3-4a8.77,8.77,0,0,0,.39,2.8c3.72,1.17,3.1-5.11-.39-2.8ZM97.3,84.42a22.26,22.26,0,0,0-6.09-2.21c-2.57-.49-2.31,3.51-2.21,5.88a19.5,19.5,0,0,0,1.49,5.14c.2.58.26,1.2.75,1.33.88.2,3.82-.94,4.63-1.4,1.76-.94,3.13-2.47,4.63-3.51,0-.49,0-1,.06-1.49a7.85,7.85,0,0,0-3.26-.82c.88-.45,2.22-.45,3-1a2.93,2.93,0,0,1,0-.59c-1.5-.16-2.06-.81-3.07-1.36ZM82,81.65c-1.34,1.37,3.75,3.19,5.34,3.29,0-.85.49-1.66.39-2.28-1.92-.32-4.43-.1-5.73-1Zm16.42.62c0,.13-.16.1-.19.2A6.76,6.76,0,0,0,103.53,84c1-.75,2-1.66,3.09-2.37-2.54.22-5.73,1.79-8.21.68Zm15,4.55c-.06-1.49-.45-4.58-1.4-5.14-2-1.13-5.41,2.31-6.87,2.83a4.52,4.52,0,0,1,.45,1.4,4.15,4.15,0,0,1,2.68.3,5.17,5.17,0,0,0-2.41.52c-.2.61.06,1.43-.1,2.27a30,30,0,0,0,7,1,5.3,5.3,0,0,0,.61-3.16ZM79.74,83c-.42-.29-3.26-4-3.65-3.8-5.11,2-9.9,5.49-14.17,8.81,4.07,8.75,5.73,19.45,6,29.76,4.66,2.18,8.76,5.33,15.12,5.66-.75-5.18-1.41-9.83-1.83-14.7-1.6-.69-3.88,0-5.38-.2,0-1.79,2.29-.78,2.48-2,.13-.91-1.27-1-.81-2.41,1.17.42,1.79,1.37,3,1.72,1.14-2.47,0-6.86.16-8.94,0-.39.19-2.14,1.07-1.85s0,4.71,0,6.66-.23,3.55.52,4.69a172.87,172.87,0,0,1,19-1.56,43.86,43.86,0,0,1-5.08-2.28c-1-.59-4.27-1.79-4.56-2.76-.49-1.56,1.24-2.38,1.53-3.71-3.09,1.69-3.68-1.63-4.43-3.94a33.32,33.32,0,0,1-1.21-4.91A60.82,60.82,0,0,1,79.74,83Zm31-3.38c4.27-2,5,7.71,3.36,10.86.26.95,1.14,1.3,1.49,2.15-2.37,4.26-5,8.23-7.46,12.42,1.8-1.14,4.4-.19,6.52-1,.78-.29,1.34-2.08,1.92-3.51a75,75,0,0,0,4.08-12.55,15,15,0,0,0,.52-3.45c-.2-1.37-2-2.37-3-3.19-1.73-1.56-2.8-2.89-4.63-4.36-.68,1.08-2.24,1.79-2.83,2.67ZM70,41.82c-2,2.24-1.6,6.4-1.37,9.39,3.68-2.31,8.54.2,8.51,4.1,1.75,0,.65-2.18.32-3.58-1-4.52,1.76-9.39.13-13.52A11.05,11.05,0,0,0,70,41.82Zm14.53-13c-4.59,1.3-10.49,4.65-12.38,8.78,1.47-.23,2.48-.94,3.91-1a8.41,8.41,0,0,0,1.89.06c1.24-.32,2.31-3.12,3.26-4.16s2-1.46,2.77-2.37c.49-.23,1.2-.23,1.24-.95-.2-.22-.43-.39-.69-.32Zm24,1.24c-4.79-2.7-12.87-4.72-18-2.18C86.42,30,80.88,33.33,79,37.59c1.76,4.13-.52,7.9-.68,12.1-.07,2.24,1,4.16,1.14,6.6-.62,1-2.45,1.1-3.72,1-.42-2.15-1.17-4.56-3.38-4.82a5.14,5.14,0,0,0-5.58,5c-.16,3.18,2.45,8.45,6.16,8.09,1.44-.13,1.79-1.56,3.36-1.56.85,1.7-1.31,2.22-1.53,3.42a8,8,0,0,0,.32,2.11A29.57,29.57,0,0,0,78.73,78c1.89,2.7,5.57,3.09,9.55,3.35.72-1.53,3.32-1.4,5-1-2.06-.81-4-2.76-5.51-4.49-1.79-2-3.62-4.09-3.71-6.7C87.5,73.88,90.3,78,96.49,80.09c4.69,1.56,10.16-.71,13.78-3.25,1.5-1,2.38-2.73,3.45-4.23,4-5.72,5.84-13.85,5.45-21.75-.17-3.26-.17-6.51-1.27-8.69s-5-4.35-7.3-2.27c-.43-2.25,1.89-3.61,4.59-2.8-1.92-2.5-3.94-5.46-6.71-7Zm8.93,73.52c3.74-1.85,10.72-5,13,0a38.56,38.56,0,0,1,2.31,6.87c.62,2.66-.68,8.32-3.45,9.2a16.53,16.53,0,0,1-8.21.16,4.62,4.62,0,0,1-1-1.3,11.27,11.27,0,0,0-5.7,1c.16,1.56-.88,1.78-1.89,2.11-.72,2.89,1.46,6.67.94,9.27-.36,1.88-2.67,2.18-4.36,2.5a12.5,12.5,0,0,0,.19,2.8c-.39,1.43-2.12,2.24-3.78,2.44-5.44.65-13.68.94-18.9-.95-1.46-3.57-2.6-7.9-3.81-12-5.08.55-9.22-2.18-13.1-4-1.33-.62-3.19-1-3.71-2s-.29-3-.42-4.88a75.29,75.29,0,0,0-1.83-14.28c-.55-2.21-1.56-4.13-2.25-6.24a43.26,43.26,0,0,1-2.05-6.34c-.42-2.9,2.31-3.06,4-4.33,2.7-1.95,4.82-3,7.76-4.78.87-.52,3.48-1.82,3.77-2.44.59-1.2-1-2.89-1.43-3.83a11.73,11.73,0,0,1-1.14-4.23A8.2,8.2,0,0,1,67,64.84c-1.86-2.73-3.16-7.77-1.53-11.58.13-.29.75-.91.85-1.36.19-.91-.36-2.12-.4-3.09-.16-5,.85-9.27,4.21-10.77,1.37-5.43,6.25-7.22,10.85-9.92a34.8,34.8,0,0,1,5.57-2.37c7-2.57,17.79-2.08,23.62,2.31,2.48,1.85,6.42,5.79,7.82,8.65,3.75,7.51,3.45,20.1.85,29.27a30.29,30.29,0,0,1-1.57,4.52c-.48,1-2,3.09-1.85,4s3.52,3.45,4.23,4.13c1.27,1.23,3.72,2.86,3.91,4.42s-.71,3.94-1.2,5.53c-1.57,5.33-3.13,10.24-4.92,15Z"/><path class="cls-9" d="M92.48,66.66c.2-.26,1.3-.68,2.87.07,0,0-1.86.29-1.7,3.38L92.87,70s-.78-2.77-.39-3.29"/><path class="cls-14" d="M106,93.07a.85.85,0,1,1-.85-.85.84.84,0,0,1,.85.85"/><path class="cls-14" d="M106.82,97a.85.85,0,1,1-.85-.84.82.82,0,0,1,.85.84"/><path d="M62.44,146.76c-.26,0-.49.06-.68.1a5.83,5.83,0,0,0-.66.13.62.62,0,0,0-.52.39,2,2,0,0,0-.13.65V156a4.74,4.74,0,0,1-.45,2,4.52,4.52,0,0,1-1.21,1.53,5.77,5.77,0,0,1-1.76.91,7.26,7.26,0,0,1-2.05.32,4.75,4.75,0,0,1-3.06-.91,3,3,0,0,1-1.18-2.5,2.35,2.35,0,0,1,.52-1.56,1.8,1.8,0,0,1,1.47-.62,1.86,1.86,0,0,1,1.4.52,1.71,1.71,0,0,1,.52,1.27,1.92,1.92,0,0,1-.45,1.2,5.93,5.93,0,0,1-1.05,1v.13a.89.89,0,0,0,.4.36,1.49,1.49,0,0,0,.61.13,2.34,2.34,0,0,0,1.93-.88,4.31,4.31,0,0,0,.68-2.64v-8.13a1.63,1.63,0,0,0-.1-.61c-.06-.17-.26-.3-.55-.43a3.75,3.75,0,0,0-.75-.22c-.29-.07-.52-.1-.72-.13v-.79h7.69v.82Z"/><path d="M74.5,157.94a7.28,7.28,0,0,1-.85,1.11,5.18,5.18,0,0,1-1.14.88,6.18,6.18,0,0,1-1.37.58,6,6,0,0,1-1.6.2,7.09,7.09,0,0,1-2.6-.42,5.1,5.1,0,0,1-1.8-1.14,5,5,0,0,1-1.07-1.69,6.37,6.37,0,0,1-.36-2.12,5.14,5.14,0,0,1,.39-2,5.67,5.67,0,0,1,1.08-1.69,4.76,4.76,0,0,1,1.76-1.17,6,6,0,0,1,2.34-.46,6.79,6.79,0,0,1,2.35.36,4.09,4.09,0,0,1,1.5.94,3.65,3.65,0,0,1,.84,1.37,5.3,5.3,0,0,1,.27,1.66V155H67.36a5.07,5.07,0,0,0,.81,3.15,3,3,0,0,0,2.55,1.08,2.9,2.9,0,0,0,1.72-.53,4.61,4.61,0,0,0,1.31-1.33l.75.55Zm-3.88-3.87c0-.39,0-.81-.07-1.23a2.88,2.88,0,0,0-.22-1,1.56,1.56,0,0,0-.49-.72,1.17,1.17,0,0,0-.75-.22,1.38,1.38,0,0,0-1.24.78,5.13,5.13,0,0,0-.52,2.5l3.29-.07Z"/><path d="M88.86,160.35H82.74v-.75a4.31,4.31,0,0,0,.88-.16.65.65,0,0,0,.29-.32,1.45,1.45,0,0,0,.1-.62v-4.75a2.64,2.64,0,0,0-.39-1.56,1.28,1.28,0,0,0-1.14-.52,1.88,1.88,0,0,0-.75.13,2.08,2.08,0,0,0-.69.36,2.19,2.19,0,0,0-.48.42,1.7,1.7,0,0,0-.3.39v5.43a1.73,1.73,0,0,0,.1.59.71.71,0,0,0,.33.35,1,1,0,0,0,.39.17l.49.09v.75H75.38v-.75a3.61,3.61,0,0,0,.52-.06l.45-.1a.71.71,0,0,0,.46-.36,1.69,1.69,0,0,0,.13-.62v-5.91a1.54,1.54,0,0,0-.16-.62,1.45,1.45,0,0,0-.43-.49,1.56,1.56,0,0,0-.45-.19,1.79,1.79,0,0,0-.62-.1v-.75l4.85-.26.17.16v1.47h0c.19-.17.42-.36.68-.62s.52-.42.75-.59a4.8,4.8,0,0,1,1-.42A4.22,4.22,0,0,1,84,150a3.15,3.15,0,0,1,2.48.94,3.64,3.64,0,0,1,.81,2.5v5a1.46,1.46,0,0,0,.1.59.78.78,0,0,0,.42.35,1.87,1.87,0,0,0,.4.13,4.63,4.63,0,0,0,.55.1v.78Z"/><path d="M102.88,160.35H98.09c-.59-1-1.14-1.92-1.63-2.63s-.95-1.4-1.37-2l-.59.52v2.21a1.39,1.39,0,0,0,.1.59.67.67,0,0,0,.42.36,1.67,1.67,0,0,0,.43.13,2.63,2.63,0,0,0,.49.06v.75H89.61v-.75a3.58,3.58,0,0,0,.53-.06l.45-.1a.71.71,0,0,0,.46-.36,1.69,1.69,0,0,0,.13-.62V147.15a1.92,1.92,0,0,0-.16-.69,1.24,1.24,0,0,0-.43-.55,1.78,1.78,0,0,0-.58-.19,2.76,2.76,0,0,0-.72-.1v-.75l5-.26.16.16v10.48c.49-.46,1.08-1,1.7-1.57s1.14-1.07,1.49-1.46c.23-.23.36-.39.36-.52a.69.69,0,0,0,0-.23c0-.13-.1-.22-.33-.29a7.67,7.67,0,0,0-1-.23v-.71h5.15V151a8.24,8.24,0,0,0-2.74,1.17c-.29.2-.55.39-.81.59s-.56.45-.91.75c.65,1,1.27,1.85,1.82,2.66l1.76,2.6a1.55,1.55,0,0,0,.78.66,5.33,5.33,0,0,0,1,.19v.78Z"/><path d="M109.39,160.35H103v-.75a3,3,0,0,0,.52-.06l.43-.1a.67.67,0,0,0,.45-.36,1.14,1.14,0,0,0,.13-.62v-5.91a1.21,1.21,0,0,0-.16-.62.94.94,0,0,0-.39-.42,2,2,0,0,0-.55-.23,2.84,2.84,0,0,0-.69-.13v-.75l5-.26.16.16v8.07a1.5,1.5,0,0,0,.16.62.86.86,0,0,0,.43.35,2,2,0,0,0,.45.17l.52.09v.75Zm-1.46-13.82a1.69,1.69,0,0,1-.59,1.3,2,2,0,0,1-1.4.55,2.14,2.14,0,0,1-1.44-.55,1.73,1.73,0,0,1-.58-1.3,1.79,1.79,0,0,1,.58-1.33,2.1,2.1,0,0,1,1.44-.56,2,2,0,0,1,1.4.56,1.74,1.74,0,0,1,.59,1.33Z"/><path d="M123.76,160.35h-6.13v-.75a2.64,2.64,0,0,0,.46-.06,2.36,2.36,0,0,0,.42-.1.72.72,0,0,0,.3-.32,1.63,1.63,0,0,0,.1-.62v-4.75a2.57,2.57,0,0,0-.4-1.56,1.27,1.27,0,0,0-1.14-.52,1.88,1.88,0,0,0-.75.13,3.46,3.46,0,0,0-.68.36,2.26,2.26,0,0,0-.49.42,1.41,1.41,0,0,0-.29.39v5.43a1.52,1.52,0,0,0,.1.59.65.65,0,0,0,.32.35,1.18,1.18,0,0,0,.39.17l.49.09v.75h-6.19v-.75a3.46,3.46,0,0,0,.52-.06l.46-.1a.67.67,0,0,0,.45-.36,1.49,1.49,0,0,0,.14-.62v-5.91a1.41,1.41,0,0,0-.17-.62,1.54,1.54,0,0,0-.42-.49,1.52,1.52,0,0,0-.46-.19,1.75,1.75,0,0,0-.62-.1v-.75l4.86-.26.16.16v1.47h0c.2-.17.43-.36.69-.62s.52-.42.75-.59a4.69,4.69,0,0,1,1-.42,4.28,4.28,0,0,1,1.31-.16,3.12,3.12,0,0,1,2.47.94,3.59,3.59,0,0,1,.82,2.5v5a1.31,1.31,0,0,0,.1.59.72.72,0,0,0,.42.35,2,2,0,0,0,.39.13,4.84,4.84,0,0,0,.56.1v.78Z"/><path d="M129.4,160.71a7,7,0,0,1-3.39-.91l-.29.68h-.79l-.13-3.77h.75a4.55,4.55,0,0,0,.52,1,6.36,6.36,0,0,0,.82,1,5.48,5.48,0,0,0,1.11.78,3,3,0,0,0,1.3.33,2.22,2.22,0,0,0,1.37-.36,1.37,1.37,0,0,0,.45-1.11,1.18,1.18,0,0,0-.19-.68,2,2,0,0,0-.56-.46,4.75,4.75,0,0,0-.88-.35c-.32-.1-.71-.2-1.17-.36a7.12,7.12,0,0,1-1.17-.42,3.45,3.45,0,0,1-1-.65,2.92,2.92,0,0,1-.72-.95,2.85,2.85,0,0,1-.26-1.33,2.72,2.72,0,0,1,1.21-2.31,5.21,5.21,0,0,1,3.16-.88,6.87,6.87,0,0,1,1.69.2,7.66,7.66,0,0,1,1.3.42l.23-.59h.79l.16,3.45H133a4.33,4.33,0,0,0-1.2-1.82,2.78,2.78,0,0,0-1.86-.78,2,2,0,0,0-1.24.33,1.1,1.1,0,0,0-.46.91,1.16,1.16,0,0,0,.66,1.1,7.75,7.75,0,0,0,1.82.65,6.57,6.57,0,0,1,2.67,1.27,2.78,2.78,0,0,1,.85,2,2.91,2.91,0,0,1-1.3,2.57,6.72,6.72,0,0,1-3.52.91Z"/></g></g></svg>