<svg xmlns="http://www.w3.org/2000/svg" viewBox="0 0 184.93 184.93"><defs><style>.cls-1{fill:none;}.cls-2{fill:#21609b;fill-rule:evenodd;}</style></defs><g id="Layer_2" data-name="Layer 2"><g id="Layer_1_copy" data-name="Layer 1 copy"><rect class="cls-1" width="184.93" height="184.93" rx="43.28"/><path d="M159.94,109.55l7.9,0L152,131.09a9.4,9.4,0,0,0-1.28,1.79,40.18,40.18,0,0,0-1.54,5.64l-7.22,0a30.08,30.08,0,0,0,1.08-6.18c0-1.87-1-3.75-1.54-5.63s-1.28-5.63-1.28-5.63h7.43l1,4.1,11.3-15.66"/><path d="M145,113.74c1.46.88,2.35,5.72,2.35,5.72s-7.62.11-11.77.11H132l-4.35,19H121s4.15-20.59,5.12-24.32c.32-1.21,2.17-1,5.31-1h5c3.23,0,7-.41,8.59.54M114,123a4,4,0,0,0-.7-2.63c-.78-1.2-1.5-1.48-3.55-1.54-5.78-.18-5.67,4.1-5.67,4.1Zm6.27-4.91c.85,3.06-.77,10.24-.77,10.24s-8.43-.14-13,0c-1.44,0-3.16-.16-3.58.51-.61.94.22,2.38.91,3a5.78,5.78,0,0,0,2.93.85,95.62,95.62,0,0,0,11.59.12l-1.36,6s-11.09.56-16.63-.77a5.59,5.59,0,0,1-2.82-1.53,8.59,8.59,0,0,1-.53-.73,6.38,6.38,0,0,1-.75-1.32c-1.27-3.38.15-9.84,1.54-13.31.16-.4.36-.91.57-1.34s.49-1.15.71-1.47.32-.37.46-.58.38-.49.56-.7a10.1,10.1,0,0,1,1.79-1.54c2.31-1.73,6.5-3.07,11.52-2.56,1.89.19,4.75.87,6.14,2.82a8.39,8.39,0,0,1,.77,2.3Zm-30.52-4.88,6.45,0s-3.6,17.06-5.43,25.38H83.37c-5.19,0-9.81.64-11.78-3.08s-.08-9.53.77-13.56c.61-2.85,1.88-8.68,1.88-8.68l6.68-.06s-1.88,9.07-2.67,13.6c-.28,1.62-.86,3.15-.26,4.35s1.39,1.23,3.84,1.28c.78,0,3.33,0,3.33,0l4.61-19.19M59.56,125.46c.68-2.4,1.66-5,1.54-7.17a6.16,6.16,0,0,0-3.33-4.86,8.52,8.52,0,0,0-8.7,2c-1.82,2-2.43,4.26-3.07,7.42-.48,2.35-.87,4.83,0,6.66,1.54,3.23,6.34,2.53,11.52,2.56.76-2.06,1.4-4.37,2-6.66Zm9-9.47c.74,5.36-2.09,11.28-4,16.42,2,.18,3.73,0,3.86.12s-1.34,6.14-1.85,6.16c-1.57,0-6.8.08-9,.08-7.11,0-13.76.46-17.15-3.07a11.14,11.14,0,0,1-2.56-5.63,23.75,23.75,0,0,1,.76-8.7,26.73,26.73,0,0,1,2.56-6.66c3-5.21,8.19-9.08,16.9-8.19a16.11,16.11,0,0,1,5.63,1.79c.1.06.47.36.55.41A11.11,11.11,0,0,1,68.52,116Zm-31.45-2.78c-.43,2-.86,4.17-1.31,6.11H28.59c.56-2.15,1-4.28,1.54-6.14,2.29,0,4.42,0,6.94,0m-8.73,7.9h6.91c-.91,5-2.7,13.07-4.1,18.69-.88,3.51-1.46,6.07-3.84,7.93-.21.17-.33.09-.51.26a9.88,9.88,0,0,1-3.58,1,50.29,50.29,0,0,1-6.13,0c.59-2.14,1.25-4.71,1.78-6.64,5.46.67,5.59-4.49,6.65-9.47.61-2.87,2.47-10.62,2.82-11.77"/><path class="cls-2" d="M121.12,80l-.27.69c-4.58,8.93-12.7,14.41-24.29,14.65a34,34,0,0,1-14-2.79A36,36,0,0,1,65.87,76.77c-4.79-9.28-5.66-22.2,4.31-31.85.15,0-1.21,2.09-1.05,2.09l-.28.9c-7.18,22.49,15,41.76,36.46,39.56A28.3,28.3,0,0,0,121.12,80"/><path class="cls-2" d="M108.1,70.73a20.63,20.63,0,0,0,14.42-6c-2.93,7.44-11.41,12.22-22.79,10.7C90.21,74.1,81.14,64.52,80.21,54.92,79.52,47.93,82,43.76,86,38.7a16.86,16.86,0,0,0-2,6c-1.53,15.12,12.07,26,24.17,26"/><path class="cls-2" d="M122,52c-.84,1.93-5.68,5.58-7.82,6-8.47,1.81-13.9-2.21-16.74-6.78a21.24,21.24,0,0,1-1.34-3c-1.11-3.75-.6-9.42,2.69-12.35A15.44,15.44,0,0,0,98.14,44a18,18,0,0,0,2.25,4.9,12.82,12.82,0,0,0,5.11,4.52,13.13,13.13,0,0,0,2.57,1.23c2.13.63,6.64,2.28,13.9-2.66"/></g></g></svg>