<svg xmlns="http://www.w3.org/2000/svg" viewBox="0 0 184.93 184.93"><defs><style>.cls-1{fill:none;}.cls-2{fill:#326ce5;}.cls-3{fill:#fff;stroke:#fff;stroke-miterlimit:10;stroke-width:0.05px;}</style></defs><g id="Layer_2" data-name="Layer 2"><g id="Layer_1_copy" data-name="Layer 1 copy"><rect class="cls-1" width="184.93" height="184.93" rx="43.28"/><path class="cls-2" d="M92.22,42.62a4.72,4.72,0,0,0-1.85.5l-25.06,12a4.77,4.77,0,0,0-2.58,3.22L56.59,85.13a4.72,4.72,0,0,0,.65,3.66l.27.38,17.33,21.54a4.84,4.84,0,0,0,3.74,1.77h27.78a4.81,4.81,0,0,0,3.74-1.79l17.32-21.54a4.7,4.7,0,0,0,.92-4l-6.18-26.87A4.73,4.73,0,0,0,119.57,55l-25-11.92A4.79,4.79,0,0,0,92.22,42.62Z"/><path class="cls-3" d="M92.48,51.76A1.58,1.58,0,0,0,91,53.43v.42a13.47,13.47,0,0,0,.2,1.42A13.76,13.76,0,0,1,91.36,58a1.68,1.68,0,0,1-.49.78l0,.64a17.63,17.63,0,0,0-2.7.42,19.26,19.26,0,0,0-9.8,5.59L77.79,65A1.2,1.2,0,0,1,76.9,65a15.24,15.24,0,0,1-2-1.83,12,12,0,0,0-1-1l-.33-.27a1.73,1.73,0,0,0-1-.39,1.43,1.43,0,0,0-1.2.53,1.59,1.59,0,0,0,.37,2.21l.31.25c.4.26.82.5,1.24.72a14.5,14.5,0,0,1,2.25,1.55,1.72,1.72,0,0,1,.3.87l.49.43a19.38,19.38,0,0,0-3.06,13.51l-.62.19a2.09,2.09,0,0,1-.65.64,13.62,13.62,0,0,1-2.69.45,11.33,11.33,0,0,0-1.43.11l-.4.1h0a1.5,1.5,0,0,0-1.29,1.69,1.46,1.46,0,0,0,.42.85,1.52,1.52,0,0,0,1.54.38h0l.41-.05a14.18,14.18,0,0,0,1.34-.49,14.06,14.06,0,0,1,2.62-.77,1.65,1.65,0,0,1,.86.3l.65-.11a19.52,19.52,0,0,0,8.64,10.81l-.27.57a1.55,1.55,0,0,1,.13.85,14.29,14.29,0,0,1-1.36,2.45,13.17,13.17,0,0,0-.8,1.2l-.2.4a1.5,1.5,0,0,0,.54,2.06,1.56,1.56,0,0,0,.92.2,1.52,1.52,0,0,0,1.25-1L83,102a13.63,13.63,0,0,0,.44-1.37A10.32,10.32,0,0,1,84.6,97.9a1.18,1.18,0,0,1,.64-.32l.34-.61a19.39,19.39,0,0,0,13.83,0l.3.58a1.13,1.13,0,0,1,.76.46,13.47,13.47,0,0,1,1,2.52,11.48,11.48,0,0,0,.44,1.37l.18.39a1.5,1.5,0,0,0,1.93.88,1.45,1.45,0,0,0,.74-.59,1.5,1.5,0,0,0,0-1.58l-.2-.4a11.78,11.78,0,0,0-.8-1.19,13.9,13.9,0,0,1-1.33-2.38,1.19,1.19,0,0,1,.15-.9,6.32,6.32,0,0,1-.25-.6A19.51,19.51,0,0,0,111,84.71l.64.11a1.18,1.18,0,0,1,.84-.3,13.93,13.93,0,0,1,2.61.76,13,13,0,0,0,1.35.52c.1,0,.26,0,.39.09h0A1.5,1.5,0,0,0,118.76,84a1.49,1.49,0,0,0-1.23-1l-.44-.1a11.63,11.63,0,0,0-1.44-.11,13.62,13.62,0,0,1-2.69-.45,1.64,1.64,0,0,1-.64-.64l-.61-.18A19.42,19.42,0,0,0,108.59,68l.53-.5a1.21,1.21,0,0,1,.28-.85,14.38,14.38,0,0,1,2.23-1.56,12,12,0,0,0,1.25-.73l.32-.26a1.51,1.51,0,1,0-1.86-2.35L111,62c-.34.33-.67.68-1,1a14.38,14.38,0,0,1-2,1.86,1.67,1.67,0,0,1-.91.09l-.57.41a19.69,19.69,0,0,0-12.45-6c0-.19,0-.56,0-.66A1.23,1.23,0,0,1,93.6,58a14.57,14.57,0,0,1,.17-2.72A11.3,11.3,0,0,0,94,53.87v-.43a1.59,1.59,0,0,0-1.48-1.66ZM90.6,63.38l-.44,7.86h0a1.33,1.33,0,0,1-1.38,1.27,1.27,1.27,0,0,1-.72-.26l-6.45-4.56a15.44,15.44,0,0,1,7.44-4c.52-.11,1-.2,1.59-.26Zm3.76,0a15.56,15.56,0,0,1,9,4.33l-6.39,4.54A1.31,1.31,0,0,1,95.09,72a1.25,1.25,0,0,1-.29-.8ZM79.24,70.65l5.89,5.25v0a1.32,1.32,0,0,1-.52,2.27v0l-7.56,2.18a15.37,15.37,0,0,1,2.19-9.77Zm26.44,0a15.69,15.69,0,0,1,2.25,9.73l-7.57-2.18v0a1.32,1.32,0,0,1-.93-1.62,1.36,1.36,0,0,1,.41-.65l5.84-5.23ZM91.27,76.32h2.41l1.47,1.87-.54,2.34-2.16,1-2.17-1-.51-2.35ZM99,82.71h.3L107.1,84a15.4,15.4,0,0,1-6.24,7.86l-3-7.31a1.32,1.32,0,0,1,.71-1.73,1.36,1.36,0,0,1,.44-.11Zm-13.1,0a1.32,1.32,0,0,1,1.3,1.34,1.18,1.18,0,0,1-.11.5v0l-3,7.23a15.54,15.54,0,0,1-6.2-7.77l7.73-1.31a1.13,1.13,0,0,1,.26,0Zm6.53,3.18a1.32,1.32,0,0,1,1.21.69h0l3.81,6.87a13.77,13.77,0,0,1-1.52.43,15.61,15.61,0,0,1-8.46-.43l3.81-6.88a1.29,1.29,0,0,1,1.12-.66Z"/><path class="cls-2" d="M38.28,134.72l1-1.07c.34-.37.66-.74,1-1.1l.9-1c.28-.33.52-.61.72-.86h3.82c-.77.88-1.51,1.71-2.23,2.51s-1.52,1.61-2.38,2.46A14.56,14.56,0,0,1,42.4,137c.46.54.9,1.1,1.33,1.67s.82,1.14,1.18,1.72.66,1.11.91,1.58H42.13c-.23-.38-.49-.79-.79-1.24s-.61-.9-.93-1.34-.68-.88-1-1.31A8.93,8.93,0,0,0,38.28,137v5H35.06V125.78l3.22-.51v9.46ZM57,141.6a16.82,16.82,0,0,1-2.11.44,17.67,17.67,0,0,1-2.71.21,6.39,6.39,0,0,1-2.41-.39,3.66,3.66,0,0,1-1.52-1.09,4.2,4.2,0,0,1-.8-1.66,9,9,0,0,1-.23-2.13v-6.32h3.21v5.92a4.63,4.63,0,0,0,.41,2.24,1.62,1.62,0,0,0,1.53.69,6.53,6.53,0,0,0,.73,0c.27,0,.5,0,.69-.07v-8.75H57Zm13.57-5.28a7.33,7.33,0,0,1-.4,2.46A5.12,5.12,0,0,1,69,140.65a5.06,5.06,0,0,1-1.85,1.2,6.88,6.88,0,0,1-2.5.42c-.39,0-.8,0-1.22-.05s-.84-.08-1.25-.14-.8-.13-1.17-.21-.71-.16-1-.25V125.78l3.21-.52v5.66a6.39,6.39,0,0,1,1.12-.37,5.83,5.83,0,0,1,1.25-.13,5.24,5.24,0,0,1,2.14.42,4.14,4.14,0,0,1,1.55,1.2,5.21,5.21,0,0,1,.95,1.86A9,9,0,0,1,70.57,136.32Zm-3.28-.09c0-2.06-.76-3.1-2.29-3.1a3.62,3.62,0,0,0-1,.13,2.88,2.88,0,0,0-.79.33v5.83a5.91,5.91,0,0,0,.6.08c.25,0,.51,0,.8,0a2.29,2.29,0,0,0,2-.9,4,4,0,0,0,.66-2.4Zm5.21.18a7,7,0,0,1,.46-2.64,5.64,5.64,0,0,1,1.22-1.89,5.28,5.28,0,0,1,1.74-1.13,5.53,5.53,0,0,1,2-.39,5,5,0,0,1,3.82,1.48,6.1,6.1,0,0,1,1.39,4.34c0,.19,0,.4,0,.62s0,.42,0,.59H75.8a2.1,2.1,0,0,0,.92,1.57,3.75,3.75,0,0,0,2.2.59,9.16,9.16,0,0,0,1.74-.17,6.14,6.14,0,0,0,1.39-.4l.43,2.61a4.08,4.08,0,0,1-.69.26c-.31.09-.63.17-1,.23s-.74.12-1.14.16a9.66,9.66,0,0,1-1.2.07,7.3,7.3,0,0,1-2.66-.45A5.3,5.3,0,0,1,74,140.61a5,5,0,0,1-1.1-1.86,7.47,7.47,0,0,1-.36-2.34ZM80,135.18a3.12,3.12,0,0,0-.14-.8,2,2,0,0,0-.36-.69,1.91,1.91,0,0,0-.63-.5A2.12,2.12,0,0,0,78,133a2.27,2.27,0,0,0-.93.18,2,2,0,0,0-.65.49,2.32,2.32,0,0,0-.4.7,4.36,4.36,0,0,0-.2.81Zm12.42-1.68-1-.23a6.54,6.54,0,0,0-1.25-.12,5.81,5.81,0,0,0-.72,0c-.22,0-.43.07-.64.12V142H85.64V131.25a20.13,20.13,0,0,1,2-.56,11.54,11.54,0,0,1,2.62-.27l.62,0c.25,0,.49.05.73.09s.49.08.74.13a3.38,3.38,0,0,1,.62.18ZM94.72,131a18.81,18.81,0,0,1,2.11-.44,17.7,17.7,0,0,1,2.72-.21,6.8,6.8,0,0,1,2.41.38,3.7,3.7,0,0,1,1.52,1.07,4.33,4.33,0,0,1,.8,1.64,8.81,8.81,0,0,1,.23,2.11V142H101.3v-6a4.33,4.33,0,0,0-.41-2.19,1.69,1.69,0,0,0-1.53-.65c-.22,0-.47,0-.73,0l-.69.07V142H94.72V131Zm12.15,5.37a6.82,6.82,0,0,1,.47-2.64,5.61,5.61,0,0,1,1.21-1.89,5.13,5.13,0,0,1,1.73-1.13,5.53,5.53,0,0,1,2-.39,5,5,0,0,1,3.82,1.48,6.1,6.1,0,0,1,1.39,4.34c0,.19,0,.4,0,.62s0,.42,0,.59h-7.29a2.11,2.11,0,0,0,.93,1.57,3.73,3.73,0,0,0,2.2.59,9.33,9.33,0,0,0,1.74-.17,6.29,6.29,0,0,0,1.39-.4l.43,2.61a4.08,4.08,0,0,1-.69.26,9.61,9.61,0,0,1-1,.23c-.35.06-.73.12-1.13.16a9.71,9.71,0,0,1-1.21.07,7.33,7.33,0,0,1-2.66-.45,5.17,5.17,0,0,1-1.87-1.25,4.83,4.83,0,0,1-1.09-1.87,7.09,7.09,0,0,1-.36-2.33Zm7.55-1.23a3.63,3.63,0,0,0-.14-.8,2,2,0,0,0-.37-.69,1.88,1.88,0,0,0-.62-.5,2.2,2.2,0,0,0-.94-.19,2.27,2.27,0,0,0-.93.18,1.83,1.83,0,0,0-.64.49,2,2,0,0,0-.4.7,3.71,3.71,0,0,0-.21.81Zm5.47-7.35,3.21-.52v3.32H127v2.66H123.1v4a3.12,3.12,0,0,0,.36,1.61,1.51,1.51,0,0,0,1.43.6,5.36,5.36,0,0,0,1.06-.1,4.22,4.22,0,0,0,1-.27l.45,2.51a9.63,9.63,0,0,1-1.29.4,7.33,7.33,0,0,1-1.75.18,5.76,5.76,0,0,1-2.17-.36,3.35,3.35,0,0,1-1.38-1,3.64,3.64,0,0,1-.72-1.54,9.47,9.47,0,0,1-.21-2v-9.5Zm8.78,8.58a7,7,0,0,1,.46-2.64,5.64,5.64,0,0,1,1.22-1.89,5.13,5.13,0,0,1,1.73-1.13,5.62,5.62,0,0,1,2-.39,5,5,0,0,1,3.81,1.48,6,6,0,0,1,1.4,4.33c0,.19,0,.4,0,.62s0,.42,0,.59H132a2.11,2.11,0,0,0,.93,1.57,3.75,3.75,0,0,0,2.2.59,9.33,9.33,0,0,0,1.74-.17,6.29,6.29,0,0,0,1.39-.4l.43,2.61a4.08,4.08,0,0,1-.69.26,9.61,9.61,0,0,1-1,.23c-.35.06-.73.12-1.13.16a9.66,9.66,0,0,1-1.2.07,7.35,7.35,0,0,1-2.67-.45,5.35,5.35,0,0,1-1.87-1.25,4.72,4.72,0,0,1-1.11-1.86,7.36,7.36,0,0,1-.35-2.33Zm7.55-1.23a3.63,3.63,0,0,0-.14-.8,2,2,0,0,0-.37-.69,1.88,1.88,0,0,0-.62-.5,2.2,2.2,0,0,0-.94-.19,2.27,2.27,0,0,0-.93.18,2,2,0,0,0-.66.49,2,2,0,0,0-.4.7,5.34,5.34,0,0,0-.21.81Zm8.82,4.5a3.11,3.11,0,0,0,1.25-.17.66.66,0,0,0,.37-.66.81.81,0,0,0-.48-.67,9.42,9.42,0,0,0-1.44-.67,13.71,13.71,0,0,1-1.37-.58,3.77,3.77,0,0,1-1.05-.72,3,3,0,0,1-.66-1,3.69,3.69,0,0,1-.24-1.4,3.06,3.06,0,0,1,1.19-2.52,5.13,5.13,0,0,1,3.25-.93,11.19,11.19,0,0,1,2,.18,10.2,10.2,0,0,1,1.51.4l-.56,2.5c-.4-.13-.81-.24-1.22-.33a7.36,7.36,0,0,0-1.48-.15c-1,0-1.51.28-1.51.84a.8.8,0,0,0,.07.34.7.7,0,0,0,.26.28,3.4,3.4,0,0,0,.52.31c.23.11.51.23.86.36a12.27,12.27,0,0,1,1.74.77,4.16,4.16,0,0,1,1.09.82,2.46,2.46,0,0,1,.56,1,4.31,4.31,0,0,1,.16,1.24,2.85,2.85,0,0,1-1.26,2.54,6.38,6.38,0,0,1-3.56.87,10.68,10.68,0,0,1-2.52-.26,11.72,11.72,0,0,1-1.39-.43l.54-2.61a11.15,11.15,0,0,0,1.68.5A7.4,7.4,0,0,0,145,139.68Z"/></g></g></svg>