<svg xmlns="http://www.w3.org/2000/svg" viewBox="0 0 184.93 184.93"><defs><style>.cls-1{fill:none;}.cls-2{fill:#621ee5;}</style></defs><g id="Layer_2" data-name="Layer 2"><g id="Layer_1_copy" data-name="Layer 1 copy"><rect class="cls-1" width="184.93" height="184.93" rx="43.28"/><path class="cls-2" d="M33.31,93.77a3.72,3.72,0,0,0-1.19-.84,3.71,3.71,0,0,0-2.85,0,3.93,3.93,0,0,0-2,2A3.89,3.89,0,0,0,27,96.39a3.45,3.45,0,0,0,.27,1.42A3.78,3.78,0,0,0,28.09,99a3.49,3.49,0,0,0,2.62,1.1A3.61,3.61,0,0,0,33.32,99a3.52,3.52,0,0,0,.82-1.2,3.65,3.65,0,0,0-.83-4Zm43.83-8.5a51.87,51.87,0,0,0,.34,7h-.13c-.29-.58-.94-1.65-1.93-3.21L51.54,51.62H44.29V99.47h5.57V64.88a49.79,49.79,0,0,0-.26-6.57h.21a15.86,15.86,0,0,0,1.52,3L75.86,99.47h6.85V51.62H77.14Zm43.35,8.94H100.8V77.63H118v-5H100.8V56.69h18.49V51.62H95.09V99.47h25.37Zm4.26-42.59v5.07h13.72V99.47h5.58V56.69h13.87V51.62Zm-54.6,59.75a10.49,10.49,0,0,0-3.69,2.48,11.6,11.6,0,0,0-2.45,4,11.81,11.81,0,0,0-.72,4.6,11.17,11.17,0,0,0,2.83,7.87,9.72,9.72,0,0,0,3.43,2.33,9.84,9.84,0,0,0,4.08.69A12.94,12.94,0,0,0,79.71,132l0-2.44A10.77,10.77,0,0,1,74,131a7.42,7.42,0,0,1-5.78-2.38,9.16,9.16,0,0,1-2.2-6.43,9.54,9.54,0,0,1,2.36-6.78,8,8,0,0,1,6.14-2.63,10.41,10.41,0,0,1,5.24,1.31v-2.63a12.83,12.83,0,0,0-5.24-.92,11.26,11.26,0,0,0-4.37.8Zm26.11,7.5a7,7,0,0,0-5.47-2.18,7.51,7.51,0,0,0-3.15.51A7.94,7.94,0,0,0,85,118.92a8.5,8.5,0,0,0-1.71,2.88,10.15,10.15,0,0,0,1.6,9.17,7.31,7.31,0,0,0,2.54,1.78,7.19,7.19,0,0,0,3,.56,7.5,7.5,0,0,0,3.1-.58,7.23,7.23,0,0,0,2.59-1.81,8.45,8.45,0,0,0,2.12-6,8.7,8.7,0,0,0-2-6Zm-1.92,10.75a4.59,4.59,0,0,1-3.74,1.58,4.76,4.76,0,0,1-3.82-1.62,6.41,6.41,0,0,1-1.42-4.41,6.85,6.85,0,0,1,1.42-4.57,4.89,4.89,0,0,1,1.72-1.26,4.71,4.71,0,0,1,2.09-.39,4.42,4.42,0,0,1,2.06.38,4.63,4.63,0,0,1,1.69,1.25,7,7,0,0,1,1.31,4.55,6.9,6.9,0,0,1-1.31,4.49Zm12.14-11.78a5.52,5.52,0,0,0-1.65,2.63v-3.29h-2.61v15.75h2.61v-8a7.14,7.14,0,0,1,1.07-4.15,3.24,3.24,0,0,1,1.12-1.09,3.21,3.21,0,0,1,1.5-.43,3.09,3.09,0,0,1,1.91.5v-2.59a4.2,4.2,0,0,0-1.49-.21A3.68,3.68,0,0,0,106.48,117.84Zm19.27,6.5a8.34,8.34,0,0,0-1.68-5.56,5.89,5.89,0,0,0-4.76-2,6.65,6.65,0,0,0-2.88.57,6.53,6.53,0,0,0-2.36,1.75,8.57,8.57,0,0,0-2.06,6,8.77,8.77,0,0,0,1.9,6,6.71,6.71,0,0,0,5.24,2.16,9.12,9.12,0,0,0,5.47-1.5V129.4a7.88,7.88,0,0,1-4.87,1.76,4.77,4.77,0,0,1-2-.31,4.86,4.86,0,0,1-1.71-1.11,5.85,5.85,0,0,1-1.33-4.05h11.07Zm-11.07-.73a5.78,5.78,0,0,1,1.54-3.33,4,4,0,0,1,3-1.29,3.61,3.61,0,0,1,1.59.27,3.44,3.44,0,0,1,1.29.94,5.19,5.19,0,0,1,1,3.38Z"/></g></g></svg>