<svg xmlns="http://www.w3.org/2000/svg" xmlns:xlink="http://www.w3.org/1999/xlink" viewBox="0 0 184.93 184.93"><defs><style>.cls-1{fill:none;}.cls-2{fill:#689f63;}.cls-3{fill:#404137;}.cls-4{clip-path:url(#clip-path);}.cls-5{fill:url(#linear-gradient);}.cls-6{clip-path:url(#clip-path-2);}.cls-7{fill:url(#linear-gradient-2);}.cls-8{clip-path:url(#clip-path-3);}.cls-9{fill:url(#linear-gradient-3);}</style><clipPath id="clip-path"><path class="cls-1" d="M72.26,68.11,58.18,76.24a1.68,1.68,0,0,0-.85,1.47V94a1.71,1.71,0,0,0,.85,1.48l14.08,8.13a1.72,1.72,0,0,0,1.7,0L88,95.45A1.73,1.73,0,0,0,88.89,94V77.71A1.7,1.7,0,0,0,88,76.24L74,68.11a1.72,1.72,0,0,0-.85-.23,1.69,1.69,0,0,0-.85.23"/></clipPath><linearGradient id="linear-gradient" x1="3006.5" y1="-1115.75" x2="3006.75" y2="-1115.75" gradientTransform="matrix(-184.39, 0, 0, -184.39, 554477.97, -205635.53)" gradientUnits="userSpaceOnUse"><stop offset="0" stop-color="#3e863d"/><stop offset="0.3" stop-color="#3e863d"/><stop offset="0.5" stop-color="#55934f"/><stop offset="0.8" stop-color="#5aad45"/><stop offset="1" stop-color="#5aad45"/></linearGradient><clipPath id="clip-path-2"><path class="cls-1" d="M57.68,95a1.78,1.78,0,0,0,.5.44l12.08,7,2,1.16a1.69,1.69,0,0,0,1,.22,1.91,1.91,0,0,0,.33-.06L88.43,76.55a1.48,1.48,0,0,0-.39-.31l-9.22-5.33L74,68.11a1.77,1.77,0,0,0-.45-.18Z"/></clipPath><linearGradient id="linear-gradient-2" x1="2977.11" y1="-1134.24" x2="2977.36" y2="-1134.24" gradientTransform="matrix(183.78, 0, 0, 183.78, -547078.11, 208546.4)" gradientUnits="userSpaceOnUse"><stop offset="0" stop-color="#3e863d"/><stop offset="0.57" stop-color="#3e863d"/><stop offset="0.72" stop-color="#619857"/><stop offset="1" stop-color="#76ac64"/></linearGradient><clipPath id="clip-path-3"><path class="cls-1" d="M72.94,67.89a1.81,1.81,0,0,0-.68.22l-14,8.1,15.14,27.58a1.59,1.59,0,0,0,.6-.21L88,95.45a1.72,1.72,0,0,0,.83-1.17L73.43,67.92a1.87,1.87,0,0,0-.34,0H73"/></clipPath><linearGradient id="linear-gradient-3" x1="2968.47" y1="-1120.26" x2="2968.72" y2="-1120.26" gradientTransform="translate(-362818.98 137030.57) scale(122.24)" gradientUnits="userSpaceOnUse"><stop offset="0" stop-color="#6bbf47"/><stop offset="0.16" stop-color="#6bbf47"/><stop offset="0.38" stop-color="#79b461"/><stop offset="0.47" stop-color="#75ac64"/><stop offset="0.7" stop-color="#659e5a"/><stop offset="0.9" stop-color="#3e863d"/><stop offset="1" stop-color="#3e863d"/></linearGradient></defs><g id="Layer_2" data-name="Layer 2"><g id="Layer_1_copy" data-name="Layer 1 copy"><rect class="cls-1" width="184.93" height="184.93" rx="43.28"/><path class="cls-2" d="M91.62,137.74a2.75,2.75,0,0,1-1.4-.38l-4.46-2.64c-.67-.37-.34-.5-.12-.58a8.66,8.66,0,0,0,2-.92.38.38,0,0,1,.34,0l3.42,2a.43.43,0,0,0,.41,0l13.35-7.71a.41.41,0,0,0,.21-.36v-15.4a.41.41,0,0,0-.21-.37l-13.34-7.7a.4.4,0,0,0-.42,0l-13.34,7.7a.42.42,0,0,0-.21.36v15.41a.41.41,0,0,0,.21.36l3.65,2.11c2,1,3.2-.18,3.2-1.36v-15.2a.38.38,0,0,1,.39-.39H87a.38.38,0,0,1,.38.39v15.21c0,2.65-1.44,4.17-3.95,4.17a5.71,5.71,0,0,1-3.08-.84l-3.5-2a2.82,2.82,0,0,1-1.4-2.43V111.8a2.81,2.81,0,0,1,1.4-2.43l13.37-7.71a2.9,2.9,0,0,1,2.8,0l13.35,7.71a2.83,2.83,0,0,1,1.4,2.44v15.4a2.82,2.82,0,0,1-1.4,2.43L93,137.35a2.78,2.78,0,0,1-1.4.38"/><path class="cls-2" d="M95.74,127.12c-5.84,0-7.07-2.68-7.07-4.93a.4.4,0,0,1,.39-.39h1.73a.39.39,0,0,1,.38.33c.26,1.76,1,2.65,4.56,2.65,2.82,0,4-.64,4-2.13,0-.86-.34-1.5-4.71-1.93-3.65-.36-5.91-1.16-5.91-4.09,0-2.69,2.27-4.3,6.08-4.3,4.27,0,6.39,1.49,6.66,4.68a.36.36,0,0,1-.11.29.37.37,0,0,1-.28.13H99.73a.38.38,0,0,1-.37-.3c-.42-1.85-1.43-2.44-4.17-2.44-3.07,0-3.43,1.07-3.43,1.87,0,1,.42,1.25,4.57,1.8s6,1.32,6,4.2-2.43,4.58-6.66,4.58M112,110.8h.45a.39.39,0,0,0,.44-.41c0-.39-.27-.39-.42-.39H112Zm-.54-1.27h1c.34,0,1,0,1,.77a.65.65,0,0,1-.54.7c.39,0,.42.29.47.66a2.92,2.92,0,0,0,.15.76h-.61c0-.13-.11-.87-.11-.91a.26.26,0,0,0-.3-.24H112v1.15h-.56ZM110.25,111a2.16,2.16,0,1,0,2.14-2.15,2.16,2.16,0,0,0-2.14,2.15m4.73,0a2.57,2.57,0,1,1-2.57-2.58A2.58,2.58,0,0,1,115,111"/><path class="cls-3" d="M50.27,77.46A1.71,1.71,0,0,0,49.42,76L35.26,67.83a1.61,1.61,0,0,0-.77-.23h-.15a1.68,1.68,0,0,0-.78.23L19.4,76a1.73,1.73,0,0,0-.85,1.49l0,21.93a.85.85,0,0,0,.42.74.81.81,0,0,0,.85,0l8.42-4.82a1.71,1.71,0,0,0,.85-1.48V83.58A1.71,1.71,0,0,1,30,82.1L33.56,80a1.65,1.65,0,0,1,.85-.23,1.57,1.57,0,0,1,.85.23l3.59,2.06a1.7,1.7,0,0,1,.85,1.48V93.83a1.72,1.72,0,0,0,.86,1.48L49,100.13a.86.86,0,0,0,.85,0,.87.87,0,0,0,.43-.74Zm66.8,11.42a.42.42,0,0,1-.22.37L112,92.05a.45.45,0,0,1-.42,0l-4.87-2.8a.44.44,0,0,1-.21-.37V83.26a.44.44,0,0,1,.21-.37l4.86-2.8a.42.42,0,0,1,.43,0l4.86,2.8a.42.42,0,0,1,.22.37Zm1.31-41.58a.88.88,0,0,0-.85,0,.87.87,0,0,0-.42.74V69.77a.6.6,0,0,1-.9.52l-3.54-2a1.69,1.69,0,0,0-1.71,0L96.8,76.42a1.71,1.71,0,0,0-.86,1.48V94.25a1.72,1.72,0,0,0,.86,1.48L111,103.9a1.69,1.69,0,0,0,1.71,0l14.16-8.18a1.7,1.7,0,0,0,.85-1.48V53.5a1.72,1.72,0,0,0-.88-1.5Zm47.15,35.82a1.71,1.71,0,0,0,.85-1.48v-4a1.7,1.7,0,0,0-.85-1.48L151.46,68a1.69,1.69,0,0,0-1.71,0L135.59,76.2a1.71,1.71,0,0,0-.85,1.48V94a1.71,1.71,0,0,0,.86,1.49l14.06,8a1.73,1.73,0,0,0,1.68,0l8.51-4.73a.86.86,0,0,0,.44-.74.87.87,0,0,0-.43-.75l-14.25-8.17a.87.87,0,0,1-.43-.74V83.28a.85.85,0,0,1,.43-.74L150,80a.86.86,0,0,1,.85,0l4.44,2.56a.87.87,0,0,1,.43.74v4a.86.86,0,0,0,.42.74.88.88,0,0,0,.86,0Z"/><path class="cls-2" d="M150.4,82.35a.31.31,0,0,1,.32,0l2.72,1.57a.34.34,0,0,1,.17.28v3.14a.32.32,0,0,1-.17.28l-2.72,1.57a.31.31,0,0,1-.32,0l-2.72-1.57a.32.32,0,0,1-.17-.28V84.2a.32.32,0,0,1,.17-.28Z"/><g class="cls-4"><rect class="cls-5" x="50" y="63.79" width="46.22" height="44.18" transform="translate(-36.19 113.73) rotate(-63.89)"/></g><g class="cls-6"><rect class="cls-7" x="50.02" y="62.31" width="46.06" height="47.14" transform="translate(-36.74 60.22) rotate(-36.46)"/></g><g class="cls-8"><rect class="cls-9" x="58.22" y="67.89" width="30.64" height="35.9"/></g></g></g></svg>