<svg xmlns="http://www.w3.org/2000/svg" xmlns:xlink="http://www.w3.org/1999/xlink" viewBox="0 0 184.93 184.93"><defs><style>.cls-1{fill:none;}.cls-2{fill:#646464;}.cls-3{fill:url(#linear-gradient);}.cls-4{fill:url(#linear-gradient-2);}.cls-5{isolation:isolate;opacity:0.44;fill:url(#radial-gradient);}</style><linearGradient id="linear-gradient" x1="-733.13" y1="-510.62" x2="-724.73" y2="-503.4" gradientTransform="translate(2242.49 1571.09) scale(2.96 2.99)" gradientUnits="userSpaceOnUse"><stop offset="0" stop-color="#5a9fd4"/><stop offset="1" stop-color="#306998"/></linearGradient><linearGradient id="linear-gradient-2" x1="-721.49" y1="-499.03" x2="-724.49" y2="-503.27" gradientTransform="translate(2242.49 1571.09) scale(2.96 2.99)" gradientUnits="userSpaceOnUse"><stop offset="0" stop-color="#ffd43b"/><stop offset="1" stop-color="#ffe873"/></linearGradient><radialGradient id="radial-gradient" cx="-2196.52" cy="-1501.33" r="2.24" gradientTransform="translate(8432.3 -2680.22) rotate(-90) scale(1.26 5.55)" gradientUnits="userSpaceOnUse"><stop offset="0" stop-color="#b8b8b8" stop-opacity="0.5"/><stop offset="1" stop-color="#7f7f7f" stop-opacity="0"/></radialGradient></defs><g id="Layer_2" data-name="Layer 2"><g id="Layer_1_copy" data-name="Layer 1 copy"><rect class="cls-1" width="184.93" height="184.93" rx="43.28"/><path class="cls-2" d="M39.83,120.29q0-8.85-5-9.1a9.62,9.62,0,0,0-3.92.64,5.91,5.91,0,0,0-2.05,1.09V127a10,10,0,0,0,5.73,1.88Q39.84,128.55,39.83,120.29Zm4.16.24A12.56,12.56,0,0,1,41.87,128a7.81,7.81,0,0,1-6.56,3.46,11.54,11.54,0,0,1-6.5-2v12.81L25.19,141V112.58a8.22,8.22,0,0,1,2.28-1.89,15.66,15.66,0,0,1,7.84-1.92l0,0a7.19,7.19,0,0,1,6.5,3.46A14.65,14.65,0,0,1,44,120.53Zm22.07,8.41q0,6-1.21,8.36a8.54,8.54,0,0,1-4.63,3.7,17.68,17.68,0,0,1-6,1.19l-.6-2.27a29.87,29.87,0,0,0,4.6-.89,6.09,6.09,0,0,0,3.61-2.72q.8-1.49.79-5.69v-.94a18.56,18.56,0,0,1-7.76,1.68,7.15,7.15,0,0,1-4.7-1.68A5.7,5.7,0,0,1,47.91,125V110l3.61-1.23V123.9a4.6,4.6,0,0,0,1.56,3.73,6,6,0,0,0,4.05,1.26A10.21,10.21,0,0,0,62.45,127V109.31h3.61v19.63Zm14.1,2.32c-.4,0-.8.05-1.19.05a7.1,7.1,0,0,1-4.78-1.46,5,5,0,0,1-1.7-4V111.58H70v-2.27h2.47v-6L76.1,102v7.32h4.06v2.27H76.1v14.13a3.41,3.41,0,0,0,1.09,2.88,5.54,5.54,0,0,0,3,.79v1.88ZM102,131H98.41V117a6.58,6.58,0,0,0-1-3.65,3.59,3.59,0,0,0-3.18-1.73q-2.49,0-6.21,2.62V131H84.42V97.64L88,96.51v15.17a12.56,12.56,0,0,1,7.56-2.52,6,6,0,0,1,4.65,1.93,6.77,6.77,0,0,1,1.78,4.8V131Zm19.2-11.25a11.05,11.05,0,0,0-1.29-5.62,5.39,5.39,0,0,0-4.75-2.86q-5.93.35-5.93,8.5a14,14,0,0,0,1.24,6.25,5,5,0,0,0,4.77,3.15c4,0,6-3.17,6-9.42Zm4,0a12.81,12.81,0,0,1-2.47,8.06,8.88,8.88,0,0,1-7.52,3.61,8.72,8.72,0,0,1-7.42-3.61,13,13,0,0,1-2.42-8.06,11.49,11.49,0,0,1,2.62-7.66,9,9,0,0,1,7.27-3.31,9.15,9.15,0,0,1,7.32,3.31,11.49,11.49,0,0,1,2.62,7.66ZM145.88,131h-3.61V116.23a4.93,4.93,0,0,0-1.46-3.78,5.3,5.3,0,0,0-3.89-1.31,8.64,8.64,0,0,0-4.89,1.68V131h-3.61v-18.6a17.85,17.85,0,0,1,5.73-3,17.58,17.58,0,0,1,4.36-.64,11,11,0,0,1,2.42.25,6.85,6.85,0,0,1,3.46,1.83,4.83,4.83,0,0,1,1.49,3.56V131Z"/><path class="cls-2" d="M152.91,106.09h.63v-4H155v-.47h-3.63v.47h1.5v4m2.7,0h.54v-3.62l1.17,3.62h.6l1.23-3.61v3.61h.59v-4.44H159l-1.34,3.81-1.14-3.81h-.87v4.44"/><path class="cls-3" d="M94.49,42.64a31.8,31.8,0,0,0-5.19.44c-4.6.82-5.44,2.52-5.44,5.65v4.15H94.73v1.38h-15A6.8,6.8,0,0,0,73,59.77a20.43,20.43,0,0,0,0,11c.78,3.21,2.62,5.51,5.78,5.51h3.74v-5a6.9,6.9,0,0,1,6.79-6.75h10.86a5.48,5.48,0,0,0,5.43-5.53V48.73c0-2.94-2.49-5.15-5.43-5.65a33.93,33.93,0,0,0-5.67-.44ZM88.61,46a2.07,2.07,0,1,1-2,2.08,2.06,2.06,0,0,1,2-2.08Z"/><path class="cls-4" d="M107,54.26v4.82a7,7,0,0,1-6.79,6.9H89.3a5.54,5.54,0,0,0-5.44,5.52V81.85c0,2.94,2.57,4.68,5.44,5.52a18.17,18.17,0,0,0,10.86,0c2.73-.79,5.43-2.39,5.43-5.52V77.71H94.73V76.33H111c3.16,0,4.34-2.21,5.44-5.52s1.09-6.67,0-11c-.78-3.15-2.27-5.51-5.44-5.51Zm-6.11,26.21a2.07,2.07,0,1,1-2,2.06A2,2,0,0,1,100.84,80.47Z"/><path class="cls-5" d="M109.42,94.41c0,1.56-6.52,2.82-14.56,2.82S80.29,96,80.29,94.41s6.52-2.83,14.57-2.83S109.42,92.85,109.42,94.41Z"/></g></g></svg>