<svg xmlns="http://www.w3.org/2000/svg" viewBox="0 0 184.93 184.93"><defs><style>.cls-1{fill:none;}.cls-2{fill:#61dafb;}</style></defs><g id="Layer_2" data-name="Layer 2"><g id="Layer_1_copy" data-name="Layer 1 copy"><rect class="cls-1" width="184.93" height="184.93" rx="43.28"/><path class="cls-2" d="M142.42,81.64c0-6.68-8.36-13-21.17-16.92,3-13.07,1.64-23.46-4.15-26.78a9,9,0,0,0-4.6-1.15v4.58a4.76,4.76,0,0,1,2.34.53c2.79,1.6,4,7.7,3.06,15.55-.23,1.93-.6,4-1.05,6a101.57,101.57,0,0,0-13-2.24A101.59,101.59,0,0,0,95.27,51c6.69-6.23,13-9.63,17.25-9.63V36.77c-5.65,0-13,4-20.52,11-7.47-6.94-14.87-10.92-20.51-10.92v4.58c4.25,0,10.55,3.39,17.25,9.57a97.17,97.17,0,0,0-8.48,10.24A98,98,0,0,0,67.19,63.5a60.32,60.32,0,0,1-1.06-6c-1-7.85.22-13.95,3-15.57a4.53,4.53,0,0,1,2.36-.53V36.87A9.13,9.13,0,0,0,66.85,38c-5.78,3.33-7.07,13.7-4.09,26.72C50,68.68,41.67,75,41.67,81.64s8.36,13,21.17,16.92c-3,13.06-1.64,23.45,4.15,26.78a9,9,0,0,0,4.62,1.15c5.65,0,13-4,20.52-11,7.47,6.94,14.86,10.93,20.51,10.93a9.13,9.13,0,0,0,4.64-1.15c5.77-3.33,7.07-13.7,4.09-26.72,12.73-3.92,21-10.25,21-16.9Zm-26.74-13.7c-.76,2.65-1.7,5.38-2.77,8.11-.84-1.64-1.73-3.28-2.69-4.93s-2-3.24-3-4.8c2.92.43,5.73,1,8.42,1.62Zm-9.4,21.87c-1.61,2.77-3.25,5.4-5,7.85-3.06.26-6.16.41-9.29.41s-6.2-.15-9.24-.39c-1.7-2.45-3.37-5.06-5-7.81s-3-5.42-4.27-8.17c1.27-2.75,2.71-5.5,4.25-8.2s3.25-5.4,5-7.84c3.06-.27,6.16-.41,9.28-.41s6.21.14,9.24.39c1.71,2.44,3.37,5,5,7.8s3,5.42,4.27,8.18C109.23,84.37,107.82,87.12,106.28,89.81Zm6.63-2.67c1.08,2.68,2,5.41,2.83,8.17-2.69.66-5.52,1.22-8.46,1.65,1-1.58,2-3.21,3-4.87s1.83-3.31,2.67-5ZM92.08,109.05a82.83,82.83,0,0,1-5.7-6.57c1.84.08,3.73.15,5.64.15s3.84,0,5.71-.15A78.55,78.55,0,0,1,92.08,109.05ZM76.81,97q-4.38-.64-8.42-1.63c.76-2.64,1.7-5.38,2.77-8.11.84,1.65,1.72,3.29,2.69,4.93S75.8,95.4,76.81,97ZM92,54.22a85,85,0,0,1,5.71,6.57c-1.85-.08-3.74-.14-5.65-.14s-3.84,0-5.71.14A82.18,82.18,0,0,1,92,54.22ZM76.79,66.32c-1,1.58-2,3.2-3,4.86S72,74.47,71.16,76.11c-1.08-2.67-2-5.4-2.84-8.17C71,67.3,73.85,66.75,76.79,66.32ZM58.2,92c-7.27-3.1-12-7.17-12-10.39s4.7-7.31,12-10.39c1.77-.76,3.7-1.44,5.69-2.08a98.17,98.17,0,0,0,4.62,12.51A97.26,97.26,0,0,0,64,94.12,61.12,61.12,0,0,1,58.2,92Zm11,29.35c-2.79-1.61-4-7.71-3.06-15.55a59.45,59.45,0,0,1,1-6,98.21,98.21,0,0,0,13,2.24,99.36,99.36,0,0,0,8.54,10.27c-6.7,6.22-13,9.63-17.25,9.63A5,5,0,0,1,69.25,121.38ZM118,105.73c1,7.84-.23,13.94-3,15.56a4.53,4.53,0,0,1-2.36.54c-4.25,0-10.56-3.39-17.25-9.57A96.3,96.3,0,0,0,103.83,102a94.77,94.77,0,0,0,13.06-2.26,56.46,56.46,0,0,1,1.07,6ZM125.87,92c-1.77.76-3.7,1.44-5.69,2.07a98.61,98.61,0,0,0-4.62-12.5,97.37,97.37,0,0,0,4.56-12.45c2,.64,4,1.34,5.77,2.1,7.27,3.1,12,7.16,12,10.39S133.14,89,125.87,92Z"/><path class="cls-2" d="M92,91a9.39,9.39,0,1,0-9.38-9.38A9.38,9.38,0,0,0,92,91ZM46.24,142.65h-3.1V148H41.4V134.79h4.36a5.14,5.14,0,0,1,3.43,1,3.64,3.64,0,0,1,1.2,2.95,3.53,3.53,0,0,1-.67,2.15,4,4,0,0,1-1.85,1.37l3.1,5.59V148H49.11Zm-3.1-1.42h2.68a3,3,0,0,0,2-.67,2.25,2.25,0,0,0,.77-1.8,2.36,2.36,0,0,0-.73-1.87,3,3,0,0,0-2.1-.66H43.14Zm13.5,6.93a4.27,4.27,0,0,1-3.24-1.3,4.89,4.89,0,0,1-1.25-3.51v-.3a5.84,5.84,0,0,1,.55-2.6,4.43,4.43,0,0,1,1.56-1.8,4,4,0,0,1,2.17-.65,3.68,3.68,0,0,1,3,1.26,5.48,5.48,0,0,1,1.06,3.6v.7H53.83a3.49,3.49,0,0,0,.84,2.35,2.68,2.68,0,0,0,2.06.89,2.84,2.84,0,0,0,1.51-.37,3.61,3.61,0,0,0,1.07-1l1,.8a4.12,4.12,0,0,1-3.7,1.89Zm-.21-8.78a2.25,2.25,0,0,0-1.7.74,3.58,3.58,0,0,0-.85,2.07h4.91v-.13a3.22,3.22,0,0,0-.69-2,2.1,2.1,0,0,0-1.67-.7Zm12,8.6a3.68,3.68,0,0,1-.23-1,3.74,3.74,0,0,1-2.79,1.21,3.49,3.49,0,0,1-2.38-.81,2.66,2.66,0,0,1-.93-2.08,2.78,2.78,0,0,1,1.16-2.38,5.47,5.47,0,0,1,3.28-.85H68.2v-.77a1.84,1.84,0,0,0-.52-1.39,2.11,2.11,0,0,0-1.55-.53,2.48,2.48,0,0,0-1.51.45,1.34,1.34,0,0,0-.6,1.1H62.33a2.26,2.26,0,0,1,.52-1.41,3.53,3.53,0,0,1,1.41-1.09,4.72,4.72,0,0,1,2-.4,3.84,3.84,0,0,1,2.65.85,3.07,3.07,0,0,1,1,2.33v4.51a5.53,5.53,0,0,0,.34,2.15V148Zm-2.78-1.27a3,3,0,0,0,1.5-.41,2.47,2.47,0,0,0,1-1.06v-2H66.89c-2.06,0-3.08.6-3.08,1.8a1.5,1.5,0,0,0,.52,1.23,2,2,0,0,0,1.35.45Zm10.76.09a2.36,2.36,0,0,0,1.56-.55,1.9,1.9,0,0,0,.75-1.36h1.58a3,3,0,0,1-.58,1.61,3.77,3.77,0,0,1-1.43,1.21,4.1,4.1,0,0,1-1.88.45,4,4,0,0,1-3.19-1.33,5.32,5.32,0,0,1-1.18-3.66v-.28a5.88,5.88,0,0,1,.52-2.54,4.06,4.06,0,0,1,1.51-1.73,4.31,4.31,0,0,1,2.33-.62,3.88,3.88,0,0,1,2.73,1,3.53,3.53,0,0,1,1.17,2.56H78.75A2.3,2.3,0,0,0,78,140a2.21,2.21,0,0,0-1.59-.61,2.38,2.38,0,0,0-2,.92,4.37,4.37,0,0,0-.69,2.66v.31a4.27,4.27,0,0,0,.69,2.61,2.37,2.37,0,0,0,2,.92Zm8-11v2.37h1.83v1.3H84.49v6.08a1.38,1.38,0,0,0,.24.88,1,1,0,0,0,.84.29,3.48,3.48,0,0,0,.79-.11V148a4.88,4.88,0,0,1-1.28.18,2.08,2.08,0,0,1-1.7-.68,2.89,2.89,0,0,1-.57-1.92v-6.08H81v-1.3h1.78v-2.37ZM103.29,148h-1.75L94.9,137.82V148H93.15V134.79H94.9L101.56,145V134.79h1.73Zm8.87,0a3.68,3.68,0,0,1-.23-1,3.74,3.74,0,0,1-2.79,1.21,3.49,3.49,0,0,1-2.38-.81,2.66,2.66,0,0,1-.93-2.08,2.78,2.78,0,0,1,1.16-2.38,5.47,5.47,0,0,1,3.28-.85h1.63v-.77a1.81,1.81,0,0,0-.53-1.39,2.08,2.08,0,0,0-1.54-.53,2.48,2.48,0,0,0-1.51.45,1.34,1.34,0,0,0-.6,1.1H106a2.26,2.26,0,0,1,.52-1.41A3.53,3.53,0,0,1,108,138.4a4.72,4.72,0,0,1,2-.4,3.85,3.85,0,0,1,2.65.85,3.07,3.07,0,0,1,1,2.33v4.51a5.53,5.53,0,0,0,.34,2.15V148Zm-2.78-1.27a3,3,0,0,0,1.5-.41,2.47,2.47,0,0,0,1-1.06v-2h-1.31c-2.06,0-3.08.6-3.08,1.8a1.5,1.5,0,0,0,.52,1.23,2,2,0,0,0,1.35.45Zm9.1-10.9v2.37h1.83v1.3h-1.83v6.08a1.38,1.38,0,0,0,.24.88,1,1,0,0,0,.84.29,3.55,3.55,0,0,0,.79-.11V148a4.88,4.88,0,0,1-1.28.18,2.08,2.08,0,0,1-1.7-.68,2.89,2.89,0,0,1-.57-1.92v-6.08H115v-1.3h1.78v-2.37ZM124.09,148h-1.67v-9.8h1.67Zm-1.81-12.4a1,1,0,0,1,.25-.69,1.12,1.12,0,0,1,1.48,0,1,1,0,0,1,.26.69,1,1,0,1,1-2,0ZM130,145.71l2.43-7.53h1.71l-3.52,9.8h-1.27l-3.56-9.8h1.72Zm9.69,2.45a4.27,4.27,0,0,1-3.24-1.3,4.85,4.85,0,0,1-1.25-3.51v-.3a5.84,5.84,0,0,1,.55-2.6,4.29,4.29,0,0,1,1.56-1.8,3.94,3.94,0,0,1,2.17-.65,3.65,3.65,0,0,1,3,1.26,5.43,5.43,0,0,1,1.06,3.6v.7h-6.64a3.54,3.54,0,0,0,.85,2.35,2.68,2.68,0,0,0,2.06.89,2.83,2.83,0,0,0,1.5-.37,3.65,3.65,0,0,0,1.08-1l1,.8a4.13,4.13,0,0,1-3.7,1.89Zm-.21-8.78a2.25,2.25,0,0,0-1.7.74,3.58,3.58,0,0,0-.85,2.07h4.91v-.13a3.22,3.22,0,0,0-.69-2,2.1,2.1,0,0,0-1.67-.7Z"/></g></g></svg>