<svg xmlns="http://www.w3.org/2000/svg" viewBox="0 0 184.93 184.93"><defs><style>.cls-1{fill:none;}.cls-2,.cls-3{fill:#00d8ff;}.cls-2{fill-rule:evenodd;}</style></defs><g id="Layer_2" data-name="Layer 2"><g id="Layer_1_copy" data-name="Layer 1 copy"><rect class="cls-1" width="184.93" height="184.93" rx="43.28"/><path class="cls-2" d="M63,153.82,55.4,142.39a7.76,7.76,0,0,0,7.27-8.18c0-5.15-3.66-8.44-8.79-8.44H42.62v28h3.49V142.66H51.7l7.14,11.14Zm-9.49-14.21H46.11V128.9h7.36c3.32,0,5.59,2.18,5.59,5.33a5.25,5.25,0,0,1-5.59,5.39ZM76,154.32A11,11,0,0,0,84,151.21l-1.51-2.06a8.88,8.88,0,0,1-6.26,2.57,7.17,7.17,0,0,1-7.32-7H85.37v-.8c0-6.09-3.62-10.89-9.76-10.89-5.8,0-10,4.75-10,10.64,0,6.34,4.33,10.66,10.34,10.66Zm6.31-11.94H68.94c.16-3.1,2.3-6.76,6.64-6.76A6.58,6.58,0,0,1,82.26,142.38Zm24,11.44v-14c0-4.91-3.57-6.85-7.86-6.85a10.63,10.63,0,0,0-8.11,3.36l1.47,2.19A8.09,8.09,0,0,1,98,135.74c2.94,0,5.13,1.56,5.13,4.29v3.66a8.46,8.46,0,0,0-6.72-2.78c-3.45,0-7.11,2.15-7.11,6.68s3.66,6.73,7.11,6.73a8.77,8.77,0,0,0,6.72-2.82v2.31Zm-8.74-1.77c-2.94,0-5-1.85-5-4.41s2.06-4.46,5-4.46a6.78,6.78,0,0,1,5.59,2.53v3.82a6.8,6.8,0,0,1-5.59,2.52Zm24,2.27a8.68,8.68,0,0,0,7.44-3.53l-2.1-1.93a6.1,6.1,0,0,1-5.15,2.65c-4.33,0-7-3.37-7-7.86s2.69-7.82,7-7.82a6,6,0,0,1,5.15,2.65l2.1-1.94a8.69,8.69,0,0,0-7.44-3.52c-6.05,0-10.13,4.62-10.13,10.63s4.08,10.66,10.13,10.66Zm17,0a5.19,5.19,0,0,0,3.78-1.3l-.92-2.35a3.05,3.05,0,0,1-2.15.84c-1.38,0-2.06-1.1-2.06-2.61V136.29h4.12v-2.77h-4.12V128H134v5.55h-3.36v2.77H134v13.29c0,3,1.51,4.75,4.5,4.75Z"/><circle class="cls-3" cx="92.89" cy="73.8" r="8.69"/><path class="cls-3" d="M92.89,93.72C80.69,93.72,70,92.27,62,89.55c-11-3.75-17.78-9.79-17.78-15.75,0-5.74,6.3-11.37,16.87-15,8.66-3,19.95-4.68,31.76-4.68,11.6,0,22.73,1.63,31.34,4.59,10.83,3.73,17.3,9.39,17.3,15.14,0,6-7.05,12-18.41,15.78C115.07,92.25,104.34,93.72,92.89,93.72Zm0-35.5c-11.2,0-22.28,1.62-30.39,4.45-9.73,3.4-14.09,8-14.09,11.13s4.69,8.3,15,11.81c7.55,2.59,17.76,4,29.5,4,11,0,21.29-1.39,28.93-3.92,10.69-3.55,15.55-8.62,15.55-11.84,0-3-4.53-7.78-14.49-11.21C114.69,59.77,104,58.22,92.89,58.22Z"/><path class="cls-3" d="M73.19,117.13A9.27,9.27,0,0,1,68.52,116c-5-2.87-6.7-11.14-4.61-22.14,1.71-9,5.9-19.62,11.81-29.85h0c5.79-10.05,12.77-18.87,19.64-24.85,8.64-7.52,16.77-10.3,21.76-7.42,5.17,3,6.88,12.11,4.47,23.82-1.71,8.3-5.8,18.33-11.53,28.26C104,94.36,97.39,102.88,91,108.44S78.18,117.13,73.19,117.13Zm39.52-82.34c-3.25,0-8.48,2.13-14.62,7.48C91.55,48,84.89,56.41,79.32,66.06h0C73.72,75.76,69.6,86.17,68,94.62c-1.92,10.12-.07,16.21,2.61,17.76s9.52.08,17.71-7.07c6-5.26,12.29-13.41,18.16-23.59,5.5-9.55,9.43-19.14,11-27,2.27-11,.31-17.78-2.48-19.38A4.64,4.64,0,0,0,112.71,34.79Z"/><path class="cls-3" d="M112.61,117.17c-4.7,0-10.68-2.85-16.91-8.21-7-6-14-14.91-20-25.14-5.81-10-10-20.48-11.72-29.42-2.21-11.24-.55-19.68,4.43-22.56,5.17-3,13.93.09,22.88,8,6.34,5.63,13,14.18,18.72,24.09,6.11,10.56,10.21,20.51,11.85,28.79,2.25,11.37.44,20.29-4.72,23.28A9,9,0,0,1,112.61,117.17ZM73,34.88a5,5,0,0,0-2.48.56c-2.59,1.5-4.46,7.82-2.44,18.16,1.67,8.5,5.66,18.5,11.24,28.14s12.57,18.47,19.08,24.07c7.82,6.73,14,8.17,16.69,6.62s4.83-8.21,2.72-18.88c-1.55-7.83-5.48-17.34-11.37-27.51C100.94,56.51,94.59,48.32,88.57,43,82.05,37.19,76.48,34.88,73,34.88Z"/></g></g></svg>